<svg version="1.2" baseProfile="tiny-ps" xmlns="http://www.w3.org/2000/svg" viewBox="0 0 1500 1500" width="1500" height="1500">
	<title>5615686-ai</title>
	<style>
		tspan { white-space:pre }
		.shp0 { fill: #4f6084 } 
		.shp1 { fill: #ffffe9 } 
		.shp2 { fill: #98a9d7 } 
		.shp3 { fill: #f59b7c } 
		.shp4 { fill: #8ed2cd } 
		.shp5 { fill: #c2ed98 } 
		.shp6 { fill: #f1f487 } 
		.shp7 { fill: #fed776 } 
		.shp8 { fill: #879dcc } 
	</style>
	<g id="BACKGROUND">
		<path id="&lt;Path&gt;" class="shp0" d="M1500 1500L0 1500L0 0L1500 0L1500 1500Z" />
	</g>
	<g id="OBJECTS">
		<g id="&lt;Group&gt;">
			<g id="&lt;Group&gt;">
				<path id="&lt;Path&gt;" class="shp1" d="M410.42 739.82L410.42 1133.84C469.3 1196.94 580.91 1228.49 745.24 1228.49C909.57 1228.49 1018.95 1202.86 1073.37 1151.59L1080.72 780.27C1090.86 758.42 1093.23 739.3 1087.83 722.91C1082.44 706.52 1080.18 698.99 1081.06 700.32C1084.49 690.79 1085.27 679.75 1083.4 667.19C1080.6 648.34 1069.85 628.27 1060.4 623.05C1054.11 619.57 1041.38 612.93 1022.23 603.13L998.62 594.35C994.34 600.9 992.15 604.36 992.06 604.71C991.97 605.06 982.62 611.17 963.99 623.05L959.53 623.86C955.68 607.42 950.39 596.09 943.66 589.89C933.56 580.57 918.34 569.69 910.34 566.41C905.01 564.22 899.06 562.25 892.5 560.5L875.85 552.77L866.66 565.23C853.98 573.97 844.02 580 836.76 583.33C829.5 586.65 822.77 591.42 816.56 597.63L802.39 577.82C787.53 565.93 776.59 558.89 769.6 556.7C759.11 553.42 753.73 551.06 752.81 550.93C752.2 550.84 746.69 548.52 736.28 543.98C729.72 552.9 724.04 558.58 719.23 561.03C714.42 563.48 709.22 565.75 703.62 567.85L674.11 590.54L672.84 595.25C664.68 580.92 656.36 572.13 647.87 568.9C639.39 565.66 630.65 562.17 621.64 558.43L600.52 549.88C592.13 559.5 584.3 565.93 577.04 569.16C566.16 574.01 549.76 583.95 546.74 586.13C543.73 588.31 533.36 601.43 532.84 602.87C532.49 603.83 532.05 605.93 531.53 609.17L507.13 598.67L489.95 592.25L486.2 590.8C473.92 604.18 466.07 611.53 462.66 612.84C459.25 614.15 451.57 617.96 439.62 624.25C431.37 631.77 426.94 636.19 426.33 637.5C425.41 639.47 421.25 645.05 420.91 647.51C420.56 649.96 419.64 657.96 419.9 659.54C420.08 660.59 421.21 664.28 423.31 670.62L428.17 675.15L429.74 688.92C418.49 697.96 412.05 704.61 410.42 708.88C407.97 715.28 407.05 718.05 407.18 722.44C407.31 726.83 408.1 732.47 409.15 734.04C409.85 735.09 410.27 737.02 410.42 739.82Z" />
				<g id="&lt;Group&gt;">
					<path id="&lt;Compound Path&gt;" fill-rule="evenodd" class="shp2" d="M673.01 773.3C673.04 773.47 673.06 773.65 673.05 773.85C672.78 783.22 670.67 792.71 666 800.9C661.72 808.42 655.47 814.1 647.53 817.52C642.78 819.56 637.9 821.09 633.36 823.61C632.24 824.23 631.13 824.86 630.01 825.47C629.64 825.94 629.26 826.42 628.87 826.89C628.06 827.87 627 827.91 626.15 827.44C624.07 828.42 621.92 829.26 619.64 829.82C600.46 834.51 582.29 824.12 569.48 810.55C560.47 813.92 550.02 811.75 542.28 806.24C534.77 800.89 529.78 792.76 526.92 784.09C526.52 783.67 526.26 783.1 526.16 782.48C525.64 779.24 525.3 775.92 525.21 772.6C524.74 772.58 524.25 772.42 523.8 772.06C517.53 767.21 514.53 759.09 514.77 751.31C515.28 735.31 528.15 723.68 541.07 716.21C555.37 707.95 572.29 702.33 582.26 688.34C582.31 688.27 582.36 688.2 582.42 688.15C581.94 687.64 581.44 687.14 580.93 686.66C578.67 684.53 581.95 680.97 584.21 683.11C584.74 683.61 585.26 684.13 585.76 684.65C586.1 684.74 586.44 684.92 586.75 685.22C590.09 688.32 594.54 689.48 598.85 690.59C603.75 691.85 608.59 693.29 613.34 695.05C621.94 698.24 630.2 702.28 637.94 707.19C645.3 711.85 652.18 717.23 657.49 724.2C667.81 737.73 671.35 755.06 673.52 771.56C673.61 772.32 673.4 772.89 673.01 773.3ZM527.88 753.62C530.42 746.36 534.84 740.16 540.57 735.06C545.95 730.27 552.02 726.41 558.06 722.54C563.98 718.75 569.99 714.92 575.07 710.02C579.55 705.68 584.62 699.46 584.88 692.87C579.94 699.29 573.29 704.2 566.32 708.25C552.81 716.13 537 721.4 526.76 733.84C522.54 738.97 519.58 745.3 519.59 752.03C519.59 757.58 521.42 763.02 525.3 766.94C525.58 762.4 526.38 757.91 527.88 753.62ZM554.68 806.66C550.05 800.57 548.49 792.84 549.22 785.2C550.84 768.32 563.17 755.78 572.12 742.3C579.85 730.66 586.35 717.29 586.54 703.2C584.55 706.85 581.81 710.16 578.94 712.99C568.71 723.04 555.17 728.64 544.45 738.05C538.81 743 534.32 748.99 532.09 756.24C529.76 763.8 529.61 771.79 530.61 779.59C530.62 779.62 530.63 779.66 530.64 779.69C532.99 788.32 537.4 796.64 544.7 802.07C547.67 804.27 551.1 805.85 554.68 806.66ZM569.49 779.56C575.85 762.26 591.38 749.47 595 731.01C596.96 721.06 595.58 710.55 591.38 701.35C591.57 708.47 590.23 715.6 587.84 722.31C585.09 730.04 581.19 737.27 576.69 744.11C572.2 750.94 566.99 757.26 562.55 764.12C558.33 770.64 554.79 777.74 554 785.57C553.31 792.37 554.73 799.73 559.45 804.9C560.13 805.64 560.24 806.52 560.01 807.29C563 807.32 565.98 806.79 568.8 805.64C565.44 797.32 566.41 787.95 569.49 779.56ZM641.07 792.73C646.35 772.95 644.31 751.6 634.6 733.49C625.72 716.94 611.4 703.61 594.18 696.15C596.03 699.58 597.52 703.21 598.58 706.97C600.87 715.04 601.33 723.63 599.76 731.87C598.02 740.96 593.47 749.03 588.4 756.64C583.26 764.37 577.5 771.9 574.2 780.66C571.12 788.82 569.96 798.4 574.45 806.28C574.95 807.17 574.85 808.05 574.43 808.73C580.37 814.73 587.15 819.91 595.02 823.11C603.38 826.51 613.09 827.28 621.65 824.16C623.42 823.51 625.11 822.69 626.77 821.79C633.43 813.19 638.27 803.24 641.07 792.73ZM668.87 772.43C668.78 772.22 668.72 772 668.69 771.75C667.48 762.55 665.82 753.35 662.74 744.57C660.14 737.14 656.44 729.96 651.16 724.06C645.3 717.52 637.88 712.53 630.28 708.22C623.48 704.37 616.33 701.12 608.93 698.58C614 701.87 618.73 705.69 623 709.94C637.9 724.76 647.32 744.62 648.62 765.66C649.72 783.56 645.2 801.67 635.91 816.96C639.77 815.27 643.81 814.05 647.6 812.22C661.75 805.35 667.78 788.91 668.22 774.04C668.24 773.36 668.49 772.82 668.87 772.43Z" />
					<path id="&lt;Compound Path&gt;" fill-rule="evenodd" class="shp2" d="M567.32 704.58C566.76 705.56 566.17 706.51 565.54 707.42C563.15 708.08 560.76 708.72 558.26 708.88C565.8 700.67 569.21 688.77 569.54 677.72C569.56 677.04 569.81 676.5 570.18 676.11C570.1 675.9 570.03 675.68 570 675.43C568.79 666.23 567.13 657.03 564.05 648.25C561.45 640.82 557.75 633.64 552.48 627.74C546.62 621.2 539.19 616.21 531.6 611.9C524.8 608.05 517.65 604.8 510.25 602.26C515.32 605.55 520.04 609.37 524.32 613.62C539.22 628.45 548.64 648.3 549.94 669.34C550.46 677.84 549.71 686.39 547.79 694.66C546.54 693.02 545.23 691.42 543.85 689.87C547.12 672 544.57 653.3 535.92 637.17C527.04 620.62 512.72 607.29 495.5 599.83C497.35 603.26 498.83 606.9 499.9 610.66C502.19 618.72 502.65 627.31 501.07 635.56C499.33 644.64 494.78 652.71 489.71 660.33C489.63 660.46 489.54 660.59 489.45 660.73C487.75 660.4 486.05 660.09 484.33 659.78C489.56 651.99 494.48 644.08 496.32 634.69C498.27 624.74 496.89 614.23 492.69 605.04C492.89 612.15 491.54 619.28 489.15 626C486.4 633.72 482.51 640.96 478.01 647.79C475.88 651.02 473.6 654.14 471.31 657.25C470.79 657.13 470.27 657.02 469.75 656.9C469.7 656.88 469.64 656.87 469.59 656.86C469.02 656.57 467.44 656.29 466.63 655.55C468.97 652.37 471.3 649.2 473.43 645.99C481.17 634.34 487.67 620.97 487.86 606.88C485.87 610.53 483.13 613.84 480.25 616.67C470.02 626.72 456.48 632.32 445.77 641.73C440.13 646.68 435.64 652.68 433.41 659.92C431.08 667.48 430.93 675.47 431.92 683.27C431.93 683.3 431.95 683.34 431.96 683.37C432.3 684.63 432.69 685.88 433.12 687.11C431.8 688.16 430.46 689.12 428.96 689.82C428.7 689.14 428.46 688.46 428.23 687.77C427.84 687.35 427.58 686.78 427.48 686.16C426.96 682.92 426.62 679.6 426.52 676.28C426.05 676.26 425.57 676.1 425.11 675.75C418.84 670.89 415.84 662.77 416.09 654.99C416.6 638.99 429.46 627.36 442.38 619.89C456.69 611.63 473.61 606.01 483.58 592.02C483.63 591.95 483.68 591.89 483.74 591.83C483.25 591.32 482.76 590.83 482.25 590.34C479.99 588.21 483.26 584.65 485.53 586.79C486.06 587.29 486.57 587.81 487.08 588.33C487.42 588.42 487.75 588.6 488.07 588.9C491.41 592 495.86 593.17 500.16 594.27C505.07 595.53 509.91 596.97 514.66 598.73C523.25 601.93 531.51 605.96 539.26 610.87C546.62 615.53 553.5 620.91 558.81 627.88C569.12 641.41 572.67 658.74 574.83 675.24C574.93 676 574.71 676.58 574.33 676.98C574.36 677.15 574.37 677.33 574.37 677.53C574.09 686.9 571.99 696.39 567.32 704.58ZM486.2 596.55C481.26 602.98 474.6 607.88 467.64 611.93C454.13 619.81 438.31 625.08 428.08 637.52C423.86 642.65 420.9 648.98 420.91 655.71C420.91 661.26 422.73 666.7 426.61 670.62C426.89 666.08 427.7 661.59 429.2 657.31C431.74 650.04 436.16 643.84 441.89 638.74C447.26 633.95 453.34 630.09 459.38 626.22C465.3 622.43 471.31 618.6 476.39 613.7C480.87 609.36 485.94 603.14 486.2 596.55Z" />
					<path id="&lt;Path&gt;" class="shp2" d="M469.75 656.9C469.7 656.88 469.64 656.87 469.59 656.86C469.02 656.57 467.44 656.29 466.63 655.55C463.5 659.83 460.37 664.14 457.7 668.66C462.27 665.12 466.26 661.22 469.75 656.9Z" />
					<path id="&lt;Compound Path&gt;" fill-rule="evenodd" class="shp2" d="M686.56 635.2C686.59 635.37 686.6 635.56 686.6 635.76C686.32 645.12 684.22 654.61 679.55 662.81C675.26 670.33 669.02 676.01 661.07 679.43C656.32 681.47 651.44 683 646.9 685.52C645.79 686.14 644.68 686.76 643.56 687.37C643.18 687.85 642.8 688.33 642.41 688.8C641.61 689.78 640.54 689.81 639.69 689.35C637.61 690.33 635.47 691.17 633.19 691.73C614 696.42 595.84 686.02 583.02 672.46C579.77 673.67 576.33 674.16 572.9 674.04C572.49 670.84 571.92 667.65 571.19 664.5C571.73 665.31 572.33 666.08 573 666.81C573.68 667.55 573.79 668.43 573.56 669.2C576.54 669.22 579.53 668.7 582.35 667.54C578.98 659.23 579.95 649.86 583.03 641.47C589.4 624.17 604.92 611.38 608.55 592.92C610.5 582.97 609.12 572.46 604.92 563.26C605.12 570.38 603.77 577.5 601.38 584.22C598.63 591.95 594.74 599.18 590.23 606.02C585.74 612.84 580.53 619.17 576.09 626.03C571.88 632.55 568.33 639.65 567.54 647.47C567.39 648.98 567.34 650.5 567.41 652.03C566.23 648.96 564.89 645.95 563.38 643.02C566.4 628.15 577.45 616.57 585.66 604.21C593.39 592.57 599.89 579.19 600.08 565.11C598.1 568.75 595.36 572.07 592.48 574.9C582.25 584.94 568.71 590.55 558 599.95C552.35 604.91 547.87 610.9 545.64 618.15C545.61 618.22 545.6 618.29 545.57 618.36C544.65 617.29 543.71 616.27 542.74 615.29C542.43 615.02 542.12 614.76 541.8 614.5C544.39 607.68 548.66 601.82 554.12 596.96C559.49 592.18 565.56 588.32 571.6 584.45C577.53 580.65 583.54 576.83 588.61 571.92C593.1 567.59 598.17 561.37 598.43 554.78C593.48 561.2 586.83 566.1 579.87 570.16C566.35 578.03 550.54 583.31 540.31 595.75C537.15 599.58 534.7 604.09 533.67 608.93C532.23 608.09 530.77 607.28 529.29 606.51C532.58 593.92 543.57 584.5 554.61 578.12C568.92 569.86 585.84 564.24 595.8 550.25C595.85 550.18 595.91 550.11 595.97 550.05C595.48 549.55 594.99 549.05 594.48 548.57C592.21 546.43 595.49 542.88 597.76 545.02C598.29 545.52 598.8 546.03 599.31 546.55C599.64 546.65 599.98 546.83 600.29 547.12C603.64 550.23 608.09 551.39 612.39 552.5C617.3 553.76 622.13 555.19 626.89 556.96C635.48 560.15 643.74 564.19 651.49 569.09C658.84 573.76 665.73 579.14 671.04 586.11C681.35 599.64 684.89 616.96 687.06 633.47C687.16 634.22 686.94 634.8 686.56 635.2ZM654.62 654.64C659.89 634.85 657.85 613.5 648.14 595.4C639.27 578.85 624.95 565.51 607.72 558.06C609.58 561.49 611.06 565.12 612.12 568.88C614.41 576.95 614.88 585.54 613.3 593.78C611.56 602.87 607.01 610.93 601.94 618.55C596.8 626.28 591.04 633.81 587.74 642.56C584.67 650.73 583.5 660.31 587.99 668.19C588.5 669.08 588.39 669.96 587.97 670.64C593.91 676.64 600.69 681.82 608.57 685.02C616.93 688.42 626.63 689.19 635.19 686.07C636.97 685.42 638.65 684.59 640.31 683.7C646.97 675.1 651.82 665.15 654.62 654.64ZM682.41 634.33C682.32 634.13 682.26 633.91 682.23 633.66C681.02 624.45 679.36 615.26 676.28 606.48C673.68 599.05 669.98 591.86 664.7 585.97C658.85 579.43 651.42 574.44 643.83 570.13C637.02 566.27 629.87 563.03 622.48 560.49C627.54 563.78 632.27 567.59 636.55 571.85C651.45 586.67 660.87 606.53 662.16 627.56C663.27 645.47 658.74 663.58 649.46 678.86C653.31 677.18 657.36 675.96 661.14 674.12C675.3 667.25 681.33 650.82 681.77 635.95C681.79 635.27 682.03 634.73 682.41 634.33Z" />
					<path id="&lt;Compound Path&gt;" fill-rule="evenodd" class="shp2" d="M819.71 651.05C818.81 653.44 817.74 655.75 816.47 657.97C812.19 665.49 805.94 671.17 798 674.59C793.25 676.64 788.37 678.16 783.83 680.68C782.71 681.3 781.6 681.93 780.48 682.54C780.11 683.02 779.73 683.49 779.34 683.96C778.53 684.94 777.47 684.98 776.62 684.52C774.54 685.5 772.39 686.34 770.11 686.89C750.93 691.58 732.76 681.19 719.95 667.62C710.94 670.99 700.48 668.82 692.75 663.32C687.68 659.71 683.76 654.83 680.87 649.37C681.45 646.25 681.84 643.08 682.06 639.9C684.58 647.38 688.76 654.37 695.17 659.14C698.14 661.35 701.57 662.93 705.15 663.74C700.51 657.64 698.96 649.92 699.69 642.28C701.3 625.4 713.64 612.85 722.59 599.38C730.32 587.73 736.82 574.36 737.01 560.28C735.02 563.92 732.28 567.24 729.4 570.06C719.17 580.11 705.64 585.71 694.92 595.12C689.28 600.07 684.79 606.07 682.56 613.31C681.9 615.45 681.42 617.62 681.09 619.81C680.52 616.38 679.73 612.98 678.74 609.66C681.33 602.84 685.59 596.99 691.04 592.13C696.42 587.35 702.49 583.48 708.53 579.61C714.45 575.82 720.46 572 725.54 567.09C730.02 562.76 735.09 556.54 735.35 549.94C730.41 556.37 723.76 561.27 716.79 565.33C703.28 573.2 687.47 578.48 677.23 590.91C675.81 592.64 674.54 594.5 673.47 596.46C672.63 594.81 671.73 593.2 670.77 591.62C675.82 583.93 683.66 577.83 691.54 573.29C705.84 565.02 722.76 559.41 732.73 545.41C732.78 545.34 732.83 545.28 732.89 545.22C732.41 544.71 731.91 544.22 731.4 543.74C729.14 541.6 732.42 538.05 734.68 540.19C735.21 540.68 735.73 541.2 736.23 541.72C736.57 541.82 736.91 542 737.22 542.29C740.56 545.39 745.01 546.56 749.32 547.66C754.22 548.93 759.06 550.36 763.81 552.13C772.41 555.32 780.67 559.35 788.41 564.26C795.77 568.92 802.65 574.31 807.96 581.28C811.6 586.05 814.4 591.3 816.59 596.82C815.44 598.5 814.33 600.2 813.32 601.96C813.28 601.86 813.24 601.75 813.21 601.64C810.6 594.22 806.91 587.03 801.63 581.14C795.77 574.59 788.35 569.6 780.75 565.3C773.95 561.44 766.8 558.19 759.4 555.65C764.47 558.94 769.19 562.76 773.47 567.01C788.37 581.84 797.79 601.69 799.09 622.73C800.19 640.64 795.67 658.74 786.38 674.03C790.23 672.35 794.28 671.13 798.07 669.29C808.38 664.29 814.37 654.21 817.04 643.36C817.57 646 818.52 648.57 819.71 651.05ZM745.47 588.09C747.43 578.13 746.05 567.63 741.85 558.43C742.04 565.55 740.7 572.67 738.3 579.39C735.56 587.11 731.66 594.35 727.16 601.18C722.67 608.01 717.46 614.33 713.02 621.2C708.8 627.71 705.26 634.82 704.47 642.64C703.78 649.44 705.2 656.81 709.92 661.97C710.6 662.72 710.71 663.6 710.48 664.36C713.47 664.39 716.45 663.86 719.27 662.71C715.91 654.4 716.87 645.03 719.96 636.63C726.32 619.33 741.85 606.54 745.47 588.09ZM791.54 649.8C796.81 630.02 794.78 608.67 785.07 590.57C776.19 574.02 761.87 560.68 744.65 553.22C746.5 556.65 747.98 560.29 749.05 564.05C751.34 572.12 751.8 580.7 750.23 588.95C748.49 598.03 743.94 606.1 738.87 613.72C733.73 621.44 727.97 628.98 724.67 637.73C721.59 645.89 720.43 655.48 724.92 663.35C725.42 664.24 725.32 665.12 724.9 665.81C730.84 671.81 737.62 676.99 745.49 680.19C753.85 683.58 763.56 684.36 772.12 681.24C773.89 680.59 775.58 679.76 777.24 678.87C783.9 670.26 788.74 660.31 791.54 649.8Z" />
					<path id="&lt;Compound Path&gt;" fill-rule="evenodd" class="shp2" d="M942.3 681.5C940.83 682.37 939.29 683.17 937.68 683.86C932.93 685.9 928.05 687.43 923.51 689.95C922.4 690.57 921.29 691.2 920.17 691.81C919.79 692.28 919.41 692.76 919.02 693.23C918.22 694.21 917.15 694.25 916.3 693.78C914.22 694.76 912.08 695.6 909.8 696.16C890.61 700.85 872.45 690.46 859.63 676.89C850.62 680.26 840.17 678.09 832.44 672.58C824.92 667.23 819.93 659.1 817.07 650.43C816.67 650.01 816.41 649.44 816.31 648.82C815.79 645.57 815.46 642.26 815.36 638.94C814.89 638.92 814.41 638.76 813.95 638.4C807.68 633.55 804.68 625.43 804.93 617.65C805.44 601.65 818.3 590.02 831.22 582.55C845.53 574.29 862.45 568.67 872.41 554.68C872.46 554.61 872.52 554.54 872.58 554.48C872.09 553.98 871.6 553.48 871.09 553C868.82 550.87 872.1 547.31 874.37 549.45C874.9 549.95 875.41 550.46 875.92 550.99C876.25 551.08 876.59 551.26 876.9 551.56C880.25 554.66 884.7 555.82 889 556.93C893.91 558.19 898.74 559.63 903.5 561.39C912.09 564.58 920.35 568.62 928.1 573.53C935.45 578.19 942.34 583.57 947.65 590.54C954.79 599.92 958.69 611.12 961.13 622.6C959.66 623.5 958.21 624.44 956.79 625.42C955.8 620.51 954.55 615.65 952.89 610.91C950.29 603.48 946.59 596.3 941.31 590.4C935.45 583.86 928.03 578.87 920.44 574.56C913.63 570.71 906.48 567.46 899.09 564.92C904.15 568.21 908.88 572.03 913.16 576.28C928.06 591.1 937.48 610.96 938.77 631.99C938.98 635.36 938.99 638.74 938.8 642.1C937.91 643.23 937.04 644.39 936.19 645.58C934.74 647.64 933.57 649.94 932.72 652.36C935.94 634.54 933.38 615.91 924.75 599.83C915.88 583.28 901.56 569.95 884.33 562.49C886.19 565.92 887.67 569.55 888.73 573.31C891.02 581.38 891.49 589.97 889.91 598.21C888.17 607.3 883.62 615.37 878.55 622.98C873.41 630.71 867.65 638.24 864.35 647C861.28 655.16 860.11 664.74 864.6 672.62C865.11 673.51 865 674.39 864.58 675.07C870.52 681.07 877.3 686.25 885.18 689.45C893.53 692.85 903.24 693.62 911.8 690.5C913.57 689.85 915.26 689.03 916.92 688.13C923.58 679.53 928.43 669.58 931.23 659.07C931.26 658.94 931.29 658.81 931.33 658.68C930.99 662.3 931.46 665.97 932.93 669.34C931.05 674.18 928.76 678.86 926.06 683.3C929.92 681.61 933.97 680.39 937.75 678.56C938.38 678.25 938.99 677.92 939.6 677.57C939.85 677.76 940.11 677.95 940.38 678.13C941.42 678.86 941.96 680.06 942.3 681.5ZM818.03 619.96C820.58 612.7 825 606.5 830.73 601.4C836.1 596.61 842.17 592.75 848.21 588.88C854.14 585.09 860.15 581.26 865.22 576.36C869.71 572.02 874.78 565.8 875.04 559.21C870.09 565.63 863.44 570.54 856.48 574.59C842.96 582.47 827.15 587.74 816.92 600.18C812.7 605.31 809.74 611.64 809.74 618.37C809.75 623.92 811.57 629.36 815.45 633.28C815.73 628.74 816.53 624.25 818.03 619.96ZM844.84 673C840.2 666.91 838.64 659.18 839.37 651.54C840.99 634.66 853.32 622.12 862.27 608.64C870 597 876.5 583.63 876.69 569.54C874.71 573.19 871.97 576.5 869.09 579.33C858.86 589.38 845.32 594.98 834.61 604.39C828.96 609.34 824.47 615.33 822.25 622.58C819.92 630.14 819.77 638.13 820.76 645.93C820.77 645.96 820.78 646 820.79 646.03C823.14 654.66 827.56 662.98 834.86 668.41C837.83 670.61 841.26 672.19 844.84 673ZM885.16 597.35C887.11 587.4 885.73 576.89 881.53 567.69C881.73 574.81 880.38 581.94 877.99 588.65C875.24 596.38 871.35 603.61 866.84 610.45C862.35 617.28 857.14 623.6 852.7 630.46C848.49 636.98 844.94 644.08 844.15 651.91C843.46 658.71 844.88 666.07 849.61 671.24C850.29 671.98 850.4 672.86 850.17 673.63C853.15 673.66 856.14 673.13 858.96 671.97C855.59 663.66 856.56 654.29 859.64 645.9C866.01 628.6 881.53 615.81 885.16 597.35Z" />
					<path id="&lt;Compound Path&gt;" fill-rule="evenodd" class="shp2" d="M947.73 705.35C944.9 701.35 942.74 696.86 941.21 692.2C940.81 691.78 940.55 691.21 940.45 690.59C939.93 687.35 939.6 684.04 939.5 680.71C939.03 680.69 938.55 680.53 938.09 680.18C931.82 675.33 928.82 667.21 929.07 659.42C929.58 643.42 942.44 631.79 955.36 624.33C969.67 616.06 986.59 610.45 996.55 596.45C996.6 596.38 996.66 596.32 996.72 596.26C996.23 595.75 995.74 595.26 995.23 594.78C992.96 592.64 996.24 589.09 998.51 591.23C999.04 591.73 999.55 592.24 1000.06 592.76C1000.39 592.86 1000.73 593.04 1001.05 593.33C1004.39 596.43 1008.84 597.6 1013.14 598.7C1018.05 599.97 1022.89 601.4 1027.64 603.17C1036.23 606.36 1044.49 610.39 1052.24 615.3C1059.59 619.96 1066.48 625.35 1071.79 632.32C1082.1 645.84 1085.65 663.17 1087.81 679.67C1087.91 680.43 1087.69 681.01 1087.31 681.41C1087.34 681.58 1087.35 681.76 1087.35 681.96C1087.09 690.53 1085.3 699.21 1081.42 706.9C1080.52 705.11 1079.56 703.35 1078.53 701.61C1081.07 695.45 1082.32 688.65 1082.52 682.16C1082.54 681.48 1082.78 680.94 1083.16 680.54C1083.07 680.34 1083.01 680.11 1082.98 679.87C1081.77 670.66 1080.11 661.47 1077.03 652.68C1074.43 645.26 1070.73 638.07 1065.45 632.18C1059.6 625.63 1052.17 620.64 1044.58 616.34C1037.77 612.48 1030.62 609.23 1023.23 606.7C1028.29 609.98 1033.02 613.8 1037.3 618.06C1052.2 632.88 1061.62 652.73 1062.91 673.77C1063.13 677.21 1063.13 680.67 1062.93 684.1C1061.39 682.95 1059.8 681.88 1058.18 680.89C1058.45 667.3 1055.4 653.73 1048.89 641.61C1040.02 625.06 1025.7 611.72 1008.47 604.26C1010.33 607.69 1011.81 611.33 1012.87 615.09C1015.16 623.16 1015.63 631.74 1014.05 639.99C1012.31 649.07 1007.76 657.14 1002.69 664.76C1002.52 665.02 1002.34 665.28 1002.17 665.54C1001.51 665.41 1000.81 665.22 1000.1 664.96C999.27 664.65 998.43 664.25 997.65 663.71C1002.75 656.08 1007.49 648.31 1009.3 639.13C1011.25 629.17 1009.87 618.67 1005.67 609.47C1005.87 616.59 1004.52 623.71 1002.13 630.43C999.38 638.15 995.49 645.39 990.98 652.22C986.49 659.05 981.28 665.37 976.84 672.24C972.95 678.26 969.63 684.78 968.53 691.9C966.83 692.87 965.12 693.83 963.4 694.78C963.43 694.29 963.46 693.81 963.51 693.32C965.13 676.44 977.46 663.89 986.41 650.42C994.14 638.77 1000.64 625.4 1000.83 611.32C998.85 614.96 996.11 618.28 993.23 621.1C983 631.15 969.46 636.75 958.75 646.16C953.1 651.11 948.62 657.11 946.39 664.35C944.06 671.91 943.91 679.9 944.9 687.7C944.91 687.74 944.92 687.77 944.93 687.81C946.28 692.75 948.31 697.58 951.16 701.84C949.85 702.82 948.72 704.01 947.73 705.35ZM942.18 661.74C944.72 654.47 949.14 648.27 954.87 643.17C960.24 638.39 966.31 634.52 972.35 630.65C978.28 626.86 984.29 623.04 989.36 618.13C993.85 613.8 998.92 607.58 999.18 600.98C994.24 607.41 987.58 612.31 980.62 616.37C967.1 624.24 951.29 629.52 941.06 641.95C936.84 647.08 933.88 653.41 933.88 660.14C933.89 665.7 935.71 671.14 939.59 675.05C939.87 670.51 940.68 666.03 942.18 661.74Z" />
					<path id="&lt;Path&gt;" class="shp2" d="M987.83 679C992.58 674.99 996.77 670.42 1000.1 664.96C999.27 664.65 998.43 664.25 997.65 663.71C994.28 668.75 990.76 673.73 987.83 679Z" />
					<path id="&lt;Compound Path&gt;" fill-rule="evenodd" class="shp2" d="M828.22 780.05C828.26 780.22 828.29 780.4 828.3 780.6C828.8 789.96 827.5 799.59 823.53 808.15C819.89 816 814.13 822.18 806.5 826.25C801.94 828.68 797.2 830.6 792.89 833.49C791.83 834.21 790.77 834.92 789.71 835.62C789.37 836.13 789.03 836.64 788.69 837.14C787.97 838.18 786.91 838.31 786.02 837.91C784.03 839.06 781.96 840.08 779.74 840.82C761.01 847.1 742.04 838.25 728.15 825.8C719.44 829.9 708.85 828.61 700.68 823.77C692.75 819.06 687.1 811.38 683.53 802.97C683.09 802.59 682.79 802.04 682.64 801.43C681.85 798.24 681.24 794.97 680.87 791.67C680.39 791.68 679.9 791.56 679.42 791.25C672.76 786.94 669.1 779.09 668.7 771.32C667.87 755.33 679.72 742.67 691.98 734.15C705.54 724.73 721.94 717.72 730.71 702.95C730.75 702.87 730.8 702.8 730.85 702.74C730.33 702.28 729.79 701.82 729.25 701.39C726.81 699.45 729.78 695.63 732.22 697.57C732.79 698.03 733.34 698.5 733.89 698.98C734.23 699.04 734.58 699.2 734.92 699.46C738.51 702.27 743.04 703.07 747.42 703.81C752.42 704.66 757.36 705.69 762.24 707.05C771.07 709.51 779.64 712.85 787.76 717.1C795.49 721.13 802.79 725.92 808.66 732.42C820.07 745.05 825.04 762.02 828.57 778.28C828.73 779.03 828.57 779.62 828.22 780.05ZM681.95 772.53C683.88 765.08 687.77 758.54 693.05 752.97C698.01 747.76 703.74 743.4 709.44 739.04C715.02 734.77 720.69 730.46 725.35 725.15C729.45 720.46 733.99 713.83 733.7 707.24C729.31 714.06 723.08 719.5 716.48 724.12C703.67 733.09 688.35 739.66 679.19 752.91C675.41 758.37 672.99 764.92 673.55 771.63C674.02 777.17 676.29 782.43 680.48 786.01C680.38 781.47 680.81 776.93 681.95 772.53ZM713.08 823.16C707.95 817.47 705.75 809.9 705.84 802.23C706.05 785.27 717.29 771.74 725.09 757.57C731.83 745.32 737.19 731.45 736.21 717.4C734.53 721.2 732.08 724.73 729.44 727.79C720.09 738.65 707.06 745.36 697.17 755.63C691.96 761.04 687.98 767.38 686.36 774.79C684.67 782.52 685.19 790.49 686.83 798.18C686.84 798.21 686.86 798.24 686.87 798.28C689.93 806.68 695.02 814.61 702.75 819.41C705.89 821.36 709.44 822.65 713.08 823.16ZM725.57 794.91C730.47 777.14 744.88 763.11 746.96 744.41C748.08 734.33 745.83 723.97 740.87 715.16C741.66 722.24 740.91 729.45 739.09 736.34C736.99 744.27 733.72 751.8 729.8 758.99C725.89 766.16 721.23 772.9 717.37 780.11C713.71 786.95 710.77 794.33 710.64 802.19C710.52 809.03 712.54 816.25 717.68 821C718.42 821.69 718.6 822.55 718.44 823.34C721.41 823.11 724.35 822.34 727.06 820.96C723.01 812.95 723.2 803.53 725.57 794.91ZM798.01 802.08C801.61 781.92 797.81 760.82 786.62 743.59C776.4 727.83 761.02 715.73 743.23 709.74C745.37 713 747.15 716.5 748.52 720.16C751.47 728.01 752.65 736.53 751.77 744.88C750.79 754.07 746.93 762.49 742.51 770.5C738.03 778.63 732.92 786.62 730.36 795.62C727.97 804.01 727.61 813.65 732.74 821.13C733.32 821.97 733.29 822.86 732.92 823.57C739.34 829.06 746.53 833.66 754.64 836.19C763.26 838.88 773 838.84 781.26 835.02C782.98 834.23 784.59 833.26 786.17 832.23C792.09 823.11 796.09 812.78 798.01 802.08ZM824.01 779.53C823.91 779.34 823.83 779.12 823.78 778.88C821.81 769.8 819.38 760.78 815.59 752.28C812.37 745.1 808.09 738.25 802.34 732.81C795.96 726.78 788.14 722.42 780.22 718.76C773.12 715.49 765.72 712.85 758.14 710.93C763.46 713.79 768.49 717.2 773.11 721.08C789.19 734.61 800.23 753.62 803.27 774.47C805.86 792.22 802.86 810.64 794.88 826.65C798.58 824.65 802.51 823.1 806.13 820.96C819.67 812.93 824.3 796.05 823.5 781.2C823.47 780.52 823.67 779.96 824.01 779.53Z" />
					<path id="&lt;Compound Path&gt;" fill-rule="evenodd" class="shp2" d="M983.69 777.88C983.74 778.05 983.77 778.23 983.78 778.43C984.4 787.78 983.21 797.43 979.35 806.03C975.81 813.92 970.13 820.18 962.55 824.34C958.02 826.83 953.3 828.81 949.03 831.76C947.98 832.48 946.93 833.21 945.88 833.93C945.55 834.44 945.21 834.95 944.87 835.45C944.16 836.51 943.11 836.64 942.22 836.26C940.24 837.44 938.19 838.48 935.97 839.25C917.32 845.76 898.25 837.15 884.2 824.87C875.54 829.08 864.93 827.92 856.71 823.18C848.72 818.58 842.97 810.96 839.29 802.6C838.86 802.22 838.55 801.68 838.39 801.07C837.56 797.89 836.91 794.63 836.49 791.33C836.02 791.35 835.53 791.24 835.04 790.93C828.33 786.7 824.57 778.9 824.07 771.13C823.05 755.16 834.74 742.35 846.89 733.68C860.34 724.09 876.64 716.88 885.22 701.99C885.27 701.92 885.32 701.85 885.37 701.79C884.84 701.33 884.3 700.88 883.75 700.45C881.29 698.54 884.21 694.69 886.67 696.6C887.24 697.05 887.81 697.51 888.36 697.99C888.7 698.05 889.05 698.2 889.4 698.46C893.02 701.23 897.56 701.96 901.95 702.65C906.96 703.44 911.91 704.4 916.81 705.7C925.67 708.06 934.27 711.29 942.45 715.43C950.23 719.37 957.59 724.07 963.54 730.5C975.1 742.98 980.29 759.89 984.02 776.11C984.19 776.85 984.03 777.44 983.69 777.88ZM837.34 772.18C839.18 764.71 842.98 758.11 848.2 752.49C853.09 747.21 858.76 742.78 864.41 738.35C869.94 734.01 875.56 729.63 880.14 724.26C884.19 719.52 888.64 712.84 888.27 706.25C883.97 713.12 877.81 718.64 871.27 723.34C858.57 732.47 843.33 739.24 834.33 752.6C830.62 758.11 828.28 764.69 828.93 771.39C829.47 776.92 831.81 782.15 836.04 785.68C835.88 781.14 836.26 776.59 837.34 772.18ZM869.09 822.42C863.89 816.79 861.6 809.25 861.6 801.58C861.59 784.62 872.67 770.95 880.29 756.68C886.88 744.35 892.07 730.42 890.91 716.38C889.28 720.2 886.87 723.76 884.27 726.85C875.05 737.83 862.11 744.7 852.35 755.09C847.2 760.56 843.31 766.96 841.78 774.38C840.19 782.13 840.8 790.09 842.54 797.76C842.55 797.8 842.57 797.83 842.58 797.87C845.74 806.23 850.93 814.09 858.72 818.79C861.89 820.71 865.45 821.95 869.09 822.42ZM881.24 794.02C885.92 776.19 900.15 761.98 901.99 743.25C902.98 733.16 900.6 722.83 895.54 714.08C896.42 721.15 895.76 728.37 894.02 735.28C892.03 743.23 888.84 750.81 885.02 758.04C881.2 765.27 876.62 772.06 872.86 779.32C869.28 786.21 866.43 793.62 866.39 801.48C866.36 808.32 868.47 815.51 873.67 820.2C874.42 820.88 874.61 821.74 874.46 822.53C877.43 822.27 880.35 821.46 883.05 820.04C878.9 812.09 878.97 802.67 881.24 794.02ZM953.75 800.28C957.11 780.08 953.04 759.03 941.64 741.94C931.22 726.31 915.7 714.4 897.84 708.63C900.01 711.87 901.83 715.34 903.25 718.98C906.3 726.8 907.59 735.3 906.8 743.66C905.94 752.87 902.18 761.33 897.87 769.4C893.49 777.58 888.48 785.63 886.03 794.66C883.75 803.08 883.51 812.73 888.73 820.14C889.32 820.98 889.3 821.86 888.94 822.58C895.43 827.99 902.68 832.5 910.82 834.93C919.47 837.51 929.21 837.35 937.42 833.43C939.13 832.61 940.73 831.63 942.29 830.58C948.1 821.38 951.97 811.01 953.75 800.28ZM979.48 777.41C979.37 777.22 979.29 777 979.23 776.76C977.15 767.71 974.62 758.72 970.71 750.27C967.41 743.13 963.04 736.33 957.23 730.97C950.77 725.01 942.9 720.76 934.93 717.19C927.79 714.01 920.36 711.46 912.76 709.64C918.11 712.43 923.18 715.77 927.85 719.6C944.1 732.93 955.37 751.79 958.68 772.61C961.49 790.33 958.72 808.78 950.93 824.89C954.61 822.85 958.52 821.24 962.11 819.05C975.55 810.86 979.98 793.93 978.99 779.08C978.95 778.4 979.14 777.84 979.48 777.41Z" />
					<path id="&lt;Compound Path&gt;" fill-rule="evenodd" class="shp2" d="M1094.62 739.55C1095.24 748.9 1094.06 758.55 1090.19 767.15C1086.65 775.04 1080.97 781.3 1073.39 785.46C1068.86 787.95 1064.15 789.93 1059.87 792.88C1058.82 793.6 1057.77 794.33 1056.72 795.04C1056.39 795.56 1056.06 796.07 1055.72 796.57C1055.01 797.63 1053.95 797.76 1053.06 797.38C1051.08 798.56 1049.03 799.6 1046.81 800.37C1028.16 806.88 1009.09 798.27 995.04 785.99C990.92 787.99 986.35 788.78 981.81 788.54C981.46 784.29 980.98 780.05 980.29 775.86C981.38 777.89 982.77 779.75 984.51 781.32C985.26 782 985.45 782.86 985.3 783.65C988.27 783.39 991.19 782.58 993.89 781.16C989.74 773.21 989.81 763.79 992.08 755.14C996.76 737.31 1010.99 723.09 1012.83 704.37C1013.83 694.28 1011.45 683.95 1006.39 675.2C1007.26 682.27 1006.6 689.49 1004.87 696.4C1002.87 704.35 999.69 711.93 995.86 719.16C992.04 726.39 987.46 733.18 983.7 740.44C980.16 747.26 977.33 754.6 977.24 762.38C976.26 759.11 975.09 755.9 973.68 752.78C976.78 740.19 985.05 729.18 991.13 717.8C997.72 705.47 1002.91 691.54 1001.75 677.5C1000.12 681.32 997.71 684.88 995.11 687.97C985.89 698.95 972.95 705.82 963.19 716.21C959.85 719.76 957.05 723.7 955.07 728.05C953.81 726.98 952.52 725.95 951.2 724.96C953.21 720.83 955.86 717.04 959.04 713.61C963.93 708.33 969.61 703.9 975.25 699.47C980.78 695.13 986.4 690.75 990.98 685.38C995.03 680.64 999.48 673.96 999.11 667.37C994.81 674.24 988.65 679.76 982.11 684.46C969.41 693.59 954.17 700.36 945.18 713.72C944.04 715.41 943.03 717.2 942.2 719.06C940.81 718.26 939.39 717.48 937.96 716.73C942.1 707.85 949.82 700.44 957.73 694.8C971.18 685.21 987.48 678 996.07 663.11C996.11 663.04 996.16 662.97 996.21 662.91C995.68 662.45 995.14 662 994.59 661.57C992.13 659.66 995.05 655.81 997.51 657.72C998.09 658.17 998.65 658.63 999.2 659.11C999.55 659.17 999.9 659.32 1000.24 659.58C1003.86 662.35 1008.4 663.08 1012.79 663.77C1017.8 664.56 1022.75 665.52 1027.65 666.82C1036.51 669.18 1045.12 672.41 1053.3 676.55C1061.07 680.49 1068.43 685.19 1074.39 691.62C1085.95 704.1 1091.13 721.01 1094.86 737.22C1095.03 737.97 1094.88 738.56 1094.53 739C1094.58 739.17 1094.61 739.35 1094.62 739.55ZM1064.6 761.4C1067.95 741.2 1063.88 720.15 1052.49 703.05C1042.07 687.43 1026.54 675.52 1008.68 669.75C1010.85 672.99 1012.67 676.46 1014.1 680.1C1017.15 687.92 1018.43 696.42 1017.65 704.78C1016.79 713.99 1013.03 722.45 1008.71 730.52C1004.34 738.7 999.32 746.75 996.87 755.78C994.59 764.2 994.35 773.85 999.57 781.26C1000.16 782.1 1000.14 782.98 999.79 783.7C1006.27 789.11 1013.52 793.62 1021.66 796.05C1030.31 798.63 1040.05 798.47 1048.27 794.55C1049.97 793.73 1051.57 792.75 1053.14 791.7C1058.94 782.5 1062.81 772.13 1064.6 761.4ZM1090.32 738.53C1090.21 738.34 1090.13 738.12 1090.07 737.88C1087.99 728.83 1085.46 719.84 1081.55 711.39C1078.25 704.25 1073.89 697.45 1068.07 692.09C1061.61 686.13 1053.74 681.87 1045.77 678.31C1038.63 675.13 1031.2 672.58 1023.6 670.76C1028.95 673.55 1034.02 676.89 1038.69 680.72C1054.94 694.05 1066.21 712.91 1069.52 733.73C1072.33 751.45 1069.56 769.9 1061.78 786.01C1065.45 783.97 1069.36 782.36 1072.95 780.17C1086.39 771.98 1090.82 755.05 1089.83 740.2C1089.79 739.52 1089.98 738.96 1090.32 738.53Z" />
					<path id="&lt;Compound Path&gt;" fill-rule="evenodd" class="shp2" d="M544.6 684.63C551.19 691.74 555.7 700.28 559.06 709.32C557.67 710.18 556.25 711 554.81 711.78C553.89 709.29 552.89 706.82 551.77 704.4C548.47 697.26 544.1 690.46 538.29 685.1C531.83 679.15 523.96 674.89 515.99 671.33C508.85 668.14 501.42 665.59 493.82 663.77C499.17 666.56 504.24 669.91 508.91 673.73C523.39 685.62 533.92 701.89 538.37 720.03C536.86 720.9 535.4 721.82 534.02 722.81C531.93 713.34 528.16 704.25 522.7 696.07C512.28 680.44 496.75 668.54 478.9 662.76C481.07 666 482.89 669.48 484.31 673.12C487.36 680.93 488.64 689.43 487.86 697.79C487 707 483.24 715.47 478.93 723.53C474.55 731.71 469.54 739.76 467.09 748.79C464.81 757.21 464.57 766.87 469.79 774.28C470.38 775.11 470.36 776 470 776.72C476.49 782.12 483.73 786.63 491.88 789.06C500.53 791.65 510.26 791.49 518.48 787.56C520.19 786.75 521.79 785.76 523.35 784.71C524.96 782.16 526.42 779.52 527.72 776.81C528.28 779.82 529.24 782.81 530.28 785.76C530.22 785.81 530.15 785.85 530.09 785.89C529.04 786.62 527.99 787.35 526.94 788.06C526.61 788.57 526.27 789.08 525.93 789.59C525.22 790.64 524.17 790.78 523.28 790.4C521.3 791.57 519.24 792.61 517.03 793.38C498.38 799.89 479.3 791.28 465.25 779C456.6 783.21 445.99 782.06 437.77 777.32C429.78 772.71 424.03 765.1 420.35 756.74C419.92 756.35 419.61 755.81 419.45 755.2C418.62 752.02 417.96 748.76 417.55 745.46C417.08 745.49 416.58 745.37 416.1 745.06C409.39 740.83 405.63 733.04 405.13 725.26C404.11 709.29 415.8 696.48 427.95 687.82C441.4 678.22 457.7 671.01 466.28 656.13C466.33 656.05 466.37 655.99 466.43 655.92C465.9 655.46 465.36 655.02 464.8 654.59C462.34 652.68 465.27 648.83 467.73 650.74C468.3 651.19 468.87 651.65 469.42 652.12C469.76 652.18 470.11 652.33 470.46 652.59C474.08 655.36 478.62 656.09 483.01 656.78C488.02 657.57 492.97 658.54 497.87 659.84C506.73 662.19 515.33 665.42 523.51 669.56C531.28 673.5 538.65 678.2 544.6 684.63ZM429.26 706.62C434.15 701.34 439.82 696.92 445.47 692.49C451 688.15 456.62 683.76 461.2 678.39C465.25 673.65 469.7 666.97 469.33 660.39C465.02 667.26 458.87 672.77 452.32 677.48C439.63 686.61 424.39 693.37 415.39 706.73C411.68 712.24 409.34 718.82 409.99 725.52C410.53 731.05 412.86 736.29 417.1 739.82C416.94 735.27 417.32 730.73 418.4 726.32C420.23 718.84 424.04 712.25 429.26 706.62ZM450.15 776.55C444.95 770.92 442.66 763.38 442.66 755.71C442.65 738.75 453.73 725.08 461.35 710.82C467.93 698.49 473.12 684.55 471.97 670.52C470.34 674.33 467.93 677.9 465.33 680.98C456.11 691.96 443.17 698.83 433.4 709.22C428.26 714.7 424.37 721.09 422.84 728.52C421.25 736.27 421.86 744.23 423.59 751.9C423.61 751.93 423.63 751.96 423.64 752C426.8 760.37 431.99 768.22 439.78 772.93C442.94 774.84 446.51 776.08 450.15 776.55ZM476.6 668.21C477.48 675.28 476.82 682.5 475.08 689.42C473.09 697.37 469.9 704.94 466.08 712.18C462.25 719.4 457.68 726.2 453.91 733.45C450.34 740.34 447.49 747.75 447.45 755.62C447.42 762.45 449.53 769.65 454.73 774.34C455.48 775.01 455.67 775.88 455.52 776.66C458.49 776.4 461.41 775.59 464.11 774.17C459.96 766.22 460.03 756.8 462.3 748.15C466.98 730.32 481.21 716.11 483.05 697.39C484.04 687.29 481.66 676.97 476.6 668.21Z" />
				</g>
				<g id="&lt;Group&gt;">
					<path id="&lt;Path&gt;" class="shp0" d="M636.4 893.98C635.51 886.96 632.18 880.43 627.24 875.37C616.99 864.88 601.31 862.69 588.01 868C587.63 867.81 587.17 867.76 586.64 867.92C579.84 869.96 574.15 874.71 570.52 880.78C566.5 887.49 565.41 895.43 566.59 903.1C568.87 917.94 580.07 931.51 594.66 935.59C601.61 937.54 609.25 937.12 615.93 934.35C623.06 931.4 628.5 925.93 631.77 918.95C635.3 911.43 637.45 902.29 636.4 893.98Z" />
					<path id="&lt;Path&gt;" class="shp0" d="M910.03 893.98C909.14 886.96 905.81 880.43 900.88 875.37C890.62 864.88 874.94 862.69 861.64 868C861.26 867.81 860.8 867.76 860.27 867.92C853.47 869.96 847.78 874.71 844.15 880.78C840.13 887.49 839.04 895.43 840.22 903.1C842.5 917.94 853.7 931.51 868.29 935.59C875.25 937.54 882.88 937.12 889.56 934.35C896.69 931.4 902.13 925.93 905.4 918.95C908.93 911.43 911.09 902.29 910.03 893.98Z" />
					<path id="&lt;Path&gt;" class="shp3" d="M636.4 969.85C635.51 964.59 632.18 959.71 627.24 955.92C616.99 948.07 601.31 946.43 588.01 950.4C587.63 950.26 587.17 950.23 586.64 950.34C579.84 951.88 574.15 955.43 570.52 959.97C566.5 965 565.41 970.94 566.59 976.68C568.87 987.78 580.07 997.94 594.66 1001C601.61 1002.46 609.25 1002.14 615.93 1000.07C623.06 997.86 628.5 993.77 631.77 988.55C635.3 982.91 637.45 976.07 636.4 969.85Z" />
					<path id="&lt;Path&gt;" class="shp3" d="M918.01 969.85C917.12 964.59 913.79 959.71 908.86 955.92C898.61 948.07 882.93 946.43 869.62 950.4C869.24 950.26 868.78 950.23 868.25 950.34C861.45 951.88 855.77 955.43 852.14 959.97C848.12 965 847.03 970.94 848.2 976.68C850.48 987.78 861.69 997.94 876.28 1001C883.23 1002.46 890.87 1002.14 897.54 1000.07C904.68 997.86 910.11 993.77 913.38 988.55C916.91 982.91 919.07 976.07 918.01 969.85Z" />
					<path id="&lt;Path&gt;" class="shp0" d="M824.6 942.46C817.02 944.61 808.47 944.52 802.49 938.76C797.83 934.26 795.32 927.46 796.68 921.04C797.33 918 792.67 916.72 792.02 919.76C790.9 925.06 791.72 930.59 794.1 935.37C793.62 935.7 793.25 936.19 793.02 936.77C786.72 952.51 772.29 964.46 756 968.7C739.48 973 721.86 968.36 708.92 957.39C701.9 951.44 696.32 943.82 693.13 935.17C697.89 929.54 700 921.86 698.46 914.6C697.82 911.56 693.16 912.85 693.8 915.88C695.16 922.3 692.66 929.11 687.99 933.6C682.01 939.36 673.46 939.45 665.89 937.3C662.89 936.45 661.61 941.11 664.6 941.96C673.04 944.36 682.31 944.07 689.36 938.76C696.04 954.78 710.01 967.29 726.56 972.57C744.5 978.28 764.13 974.09 778.92 962.69C786.75 956.65 792.97 948.86 796.94 939.83C797.59 940.65 798.31 941.44 799.07 942.17C806.32 949.14 816.6 949.76 825.88 947.12C828.88 946.27 827.6 941.61 824.6 942.46Z" />
				</g>
				<g id="&lt;Group&gt;">
					<path id="&lt;Path&gt;" class="shp2" d="M504.86 1156.76L502.59 1158.44C500.52 1159.97 497.57 1159.54 496.04 1157.47L472.91 1126.28C471.37 1124.21 471.81 1121.26 473.88 1119.72L476.14 1118.04C478.21 1116.51 481.16 1116.95 482.7 1119.02L505.83 1150.2C507.37 1152.27 506.93 1155.22 504.86 1156.76Z" />
					<path id="&lt;Path&gt;" class="shp2" d="M688.25 1096.91L687.35 1094.24C686.52 1091.8 687.85 1089.12 690.29 1088.3L727.07 1075.86C729.51 1075.03 732.18 1076.36 733.01 1078.8L733.91 1081.47C734.74 1083.91 733.42 1086.59 730.97 1087.41L694.19 1099.85C691.75 1100.67 689.08 1099.35 688.25 1096.91Z" />
					<path id="&lt;Path&gt;" class="shp2" d="M824.96 1179.36L826.05 1176.75C827.04 1174.37 829.8 1173.24 832.18 1174.23L868.02 1189.14C870.4 1190.14 871.54 1192.89 870.55 1195.27L869.47 1197.88C868.48 1200.26 865.72 1201.39 863.34 1200.4L827.49 1185.49C825.11 1184.5 823.97 1181.74 824.96 1179.36Z" />
					<path id="&lt;Path&gt;" class="shp2" d="M913.01 1150.71L911.01 1148.71C909.19 1146.89 909.19 1143.91 911.01 1142.09L938.47 1114.63C940.29 1112.81 943.27 1112.81 945.1 1114.63L947.09 1116.62C948.91 1118.45 948.91 1121.43 947.09 1123.25L919.64 1150.71C917.81 1152.53 914.83 1152.53 913.01 1150.71Z" />
					<path id="&lt;Path&gt;" class="shp2" d="M1003.95 1034.57L1005.72 1032.38C1007.33 1030.37 1010.3 1030.05 1012.31 1031.67L1042.54 1056.03C1044.55 1057.65 1044.87 1060.61 1043.25 1062.62L1041.48 1064.82C1039.86 1066.82 1036.9 1067.14 1034.89 1065.53L1004.66 1041.16C1002.65 1039.55 1002.33 1036.58 1003.95 1034.57Z" />
					<path id="&lt;Path&gt;" class="shp2" d="M433.9 1009.24L435.67 1007.05C437.29 1005.04 440.25 1004.72 442.26 1006.34L472.49 1030.7C474.5 1032.32 474.82 1035.29 473.2 1037.29L471.43 1039.49C469.82 1041.5 466.85 1041.81 464.84 1040.2L434.61 1015.84C432.6 1014.22 432.28 1011.25 433.9 1009.24Z" />
					<path id="&lt;Path&gt;" class="shp4" d="M596.67 1114.93L597.73 1117.54C598.69 1119.93 597.53 1122.68 595.14 1123.65L559.15 1138.21C556.75 1139.17 554.01 1138.01 553.04 1135.62L551.98 1133.01C551.02 1130.62 552.18 1127.87 554.57 1126.9L590.56 1112.34C592.96 1111.38 595.7 1112.54 596.67 1114.93Z" />
					<path id="&lt;Path&gt;" class="shp4" d="M748.2 1211.16L745.45 1210.55C742.93 1210 741.32 1207.49 741.88 1204.97L750.19 1167.05C750.75 1164.53 753.26 1162.92 755.78 1163.47L758.53 1164.08C761.05 1164.63 762.66 1167.14 762.11 1169.66L753.79 1207.58C753.24 1210.1 750.72 1211.71 748.2 1211.16Z" />
					<path id="&lt;Path&gt;" class="shp4" d="M898.44 1084.56L897.6 1087.24C896.82 1089.7 894.18 1091.08 891.72 1090.31L854.69 1078.63C852.23 1077.85 850.85 1075.21 851.63 1072.75L852.48 1070.06C853.25 1067.6 855.9 1066.22 858.36 1067L895.38 1078.68C897.84 1079.45 899.22 1082.1 898.44 1084.56Z" />
					<path id="&lt;Path&gt;" class="shp5" d="M1046.74 1023.71L1044.13 1024.77C1041.74 1025.74 1038.99 1024.57 1038.02 1022.18L1023.47 986.19C1022.5 983.8 1023.66 981.05 1026.05 980.09L1028.67 979.03C1031.06 978.06 1033.8 979.23 1034.77 981.62L1049.33 1017.61C1050.3 1020 1049.13 1022.75 1046.74 1023.71Z" />
					<path id="&lt;Path&gt;" class="shp5" d="M780.8 1094.14L779.13 1091.88C777.59 1089.81 778.03 1086.86 780.1 1085.32L811.28 1062.19C813.35 1060.65 816.3 1061.09 817.84 1063.16L819.52 1065.43C821.06 1067.5 820.62 1070.45 818.55 1071.98L787.36 1095.11C785.29 1096.65 782.34 1096.21 780.8 1094.14Z" />
					<path id="&lt;Path&gt;" class="shp5" d="M613.88 1173.82L614.96 1171.22C615.95 1168.84 618.71 1167.7 621.09 1168.69L656.93 1183.61C659.31 1184.6 660.45 1187.36 659.46 1189.74L658.38 1192.34C657.39 1194.72 654.63 1195.86 652.25 1194.87L616.4 1179.95C614.02 1178.96 612.88 1176.2 613.88 1173.82Z" />
					<path id="&lt;Path&gt;" class="shp5" d="M535.49 1040.64L536.57 1038.04C537.57 1035.66 540.32 1034.52 542.7 1035.51L578.55 1050.43C580.93 1051.42 582.07 1054.18 581.08 1056.56L579.99 1059.16C579 1061.54 576.24 1062.68 573.86 1061.69L538.02 1046.77C535.64 1045.78 534.5 1043.02 535.49 1040.64Z" />
					<path id="&lt;Path&gt;" class="shp6" d="M428.51 1103.34L426.83 1101.08C425.29 1099.01 425.73 1096.06 427.8 1094.52L458.98 1071.39C461.05 1069.86 464.01 1070.29 465.54 1072.37L467.22 1074.63C468.76 1076.7 468.32 1079.65 466.25 1081.19L435.06 1104.32C432.99 1105.85 430.04 1105.41 428.51 1103.34Z" />
					<path id="&lt;Path&gt;" class="shp6" d="M995.6 1120.49L997.16 1118.14C998.59 1116 1001.52 1115.41 1003.66 1116.84L1035.99 1138.35C1038.13 1139.78 1038.72 1142.7 1037.29 1144.85L1035.73 1147.19C1034.3 1149.34 1031.38 1149.93 1029.23 1148.5L996.91 1126.99C994.76 1125.56 994.18 1122.64 995.6 1120.49Z" />
					<path id="&lt;Path&gt;" class="shp6" d="M934.05 1022.69L935.61 1020.35C937.04 1018.2 939.96 1017.61 942.11 1019.04L974.43 1040.55C976.58 1041.98 977.17 1044.9 975.74 1047.05L974.18 1049.39C972.75 1051.54 969.82 1052.13 967.68 1050.7L935.35 1029.19C933.21 1027.76 932.62 1024.84 934.05 1022.69Z" />
					<path id="&lt;Path&gt;" class="shp7" d="M716.54 1137.79L717.77 1140.32C718.9 1142.64 717.93 1145.46 715.61 1146.59L680.69 1163.57C678.37 1164.7 675.55 1163.73 674.43 1161.41L673.19 1158.87C672.07 1156.55 673.04 1153.73 675.36 1152.61L710.27 1135.62C712.59 1134.5 715.41 1135.47 716.54 1137.79Z" />
					<path id="&lt;Path&gt;" class="shp7" d="M535.82 996.74L537.05 999.27C538.18 1001.59 537.2 1004.41 534.88 1005.54L499.97 1022.52C497.65 1023.65 494.83 1022.68 493.7 1020.36L492.47 1017.82C491.34 1015.5 492.32 1012.68 494.64 1011.56L529.55 994.57C531.87 993.45 534.69 994.42 535.82 996.74Z" />
					<path id="&lt;Path&gt;" class="shp7" d="M982.18 1152.94L983.42 1155.47C984.54 1157.79 983.57 1160.61 981.25 1161.74L946.34 1178.72C944.02 1179.84 941.2 1178.87 940.07 1176.55L938.84 1174.02C937.71 1171.7 938.68 1168.88 941 1167.75L975.92 1150.77C978.24 1149.64 981.06 1150.62 982.18 1152.94Z" />
					<path id="&lt;Path&gt;" class="shp7" d="M1010.62 1015.37L1009.54 1017.97C1008.55 1020.35 1005.79 1021.49 1003.41 1020.5L967.57 1005.58C965.19 1004.59 964.05 1001.83 965.04 999.45L966.12 996.85C967.11 994.47 969.87 993.33 972.25 994.32L1008.1 1009.24C1010.48 1010.23 1011.62 1012.99 1010.62 1015.37Z" />
					<path id="&lt;Path&gt;" class="shp3" d="M866.78 1146.83L865.7 1149.43C864.71 1151.81 861.95 1152.95 859.57 1151.96L823.72 1137.04C821.34 1136.05 820.21 1133.29 821.2 1130.91L822.28 1128.31C823.27 1125.93 826.03 1124.79 828.41 1125.79L864.25 1140.7C866.63 1141.69 867.77 1144.45 866.78 1146.83Z" />
					<path id="&lt;Path&gt;" class="shp3" d="M622.1 1072.64L621.04 1070.03C620.07 1067.64 621.24 1064.89 623.63 1063.92L659.62 1049.36C662.01 1048.4 664.76 1049.56 665.72 1051.95L666.78 1054.57C667.75 1056.96 666.58 1059.7 664.19 1060.67L628.2 1075.23C625.81 1076.19 623.06 1075.03 622.1 1072.64Z" />
					<path id="&lt;Path&gt;" class="shp3" d="M540.08 1090.24C537.42 1087.9 533.28 1087.21 530.27 1089.32C528.99 1090.21 528.05 1091.52 527.53 1092.96C526.27 1092.88 524.97 1093.66 525.03 1095.29C525.17 1099.21 527.66 1102.79 531.41 1104.09C535.2 1105.41 539.32 1103.64 541.41 1100.31C543.45 1097.05 542.99 1092.81 540.08 1090.24Z" />
					<path id="&lt;Compound Path&gt;" fill-rule="evenodd" class="shp3" d="M474.72 988.15C472.36 991.56 467.46 991.95 464.21 989.8C464.2 989.79 464.18 989.78 464.17 989.77C463.3 989.22 462.62 988.49 462.12 987.65C462.02 987.48 461.91 987.3 461.82 987.12C461.76 986.99 461.71 986.87 461.67 986.75C460.28 983.38 461.44 978.91 465.08 977.45C466.31 976.67 467.77 976.24 469.31 976.36C474.77 976.78 477.8 983.7 474.72 988.15ZM468.61 984.02C468.71 983.88 468.76 983.67 468.7 983.37C468.7 983.34 468.69 983.32 468.68 983.3C468.38 983.37 468.14 983.68 468.11 984.04C468.3 984.07 468.47 984.07 468.61 984.02Z" />
					<path id="&lt;Compound Path&gt;" fill-rule="evenodd" class="shp3" d="M957.98 1086.28C954.68 1088.48 950.26 1088.06 947.59 1085.07C945.09 1082.27 944.5 1078.16 946.32 1074.86C946.71 1074.15 947.28 1073.79 947.88 1073.69C949.04 1072.36 950.66 1071.41 952.66 1071.21C956.2 1070.86 959.91 1073.01 961.32 1076.27C962.93 1079.98 961.24 1084.1 957.98 1086.28ZM955.53 1081.73C955.73 1081.56 955.89 1081.36 956 1081.11C955.9 1081.23 955.79 1081.34 955.68 1081.44C955.63 1081.54 955.58 1081.64 955.53 1081.73Z" />
					<path id="&lt;Path&gt;" class="shp7" d="M913.83 1039.43C913.57 1038.82 913.22 1038.23 912.78 1037.71C909.85 1034.23 904.5 1034.95 901.55 1038.02C898.07 1041.66 898.82 1047.16 902.92 1049.97C906.87 1052.67 912.21 1051.36 914.25 1046.99C915.42 1044.46 915.21 1041.58 913.83 1039.43Z" />
					<path id="&lt;Path&gt;" class="shp7" d="M1048.01 1101.3C1045.77 1100.18 1042.94 1100.25 1040.95 1101.65C1039.95 1101.2 1038.73 1101.38 1038.11 1102.66C1036.43 1106.09 1037.3 1110.36 1040.46 1112.64C1043.69 1114.97 1048.09 1113.77 1050.27 1110.6C1052.47 1107.4 1051.52 1103.06 1048.01 1101.3Z" />
					<path id="&lt;Compound Path&gt;" fill-rule="evenodd" class="shp7" d="M451.42 1129.58C450.12 1130.71 448.46 1131.49 446.74 1131.8C446.05 1132.34 445.21 1132.53 444.22 1132.53C442.15 1132.54 440.12 1131.52 438.83 1129.91C437.03 1127.66 437.19 1124.74 438.61 1122.63C439.29 1120.33 441.38 1118.55 444.15 1118.41C448.02 1118.21 451.69 1121.58 450.41 1125.6C450.4 1125.62 450.39 1125.65 450.38 1125.67C451.96 1126.19 453.02 1128.2 451.42 1129.58ZM444.06 1125.09C444.15 1125.16 444.27 1125.19 444.4 1125.19C444.29 1124.86 444.08 1124.62 443.59 1124.66C443.53 1124.67 443.48 1124.67 443.42 1124.68C443.64 1124.78 443.85 1124.91 444.06 1125.09Z" />
					<path id="&lt;Compound Path&gt;" fill-rule="evenodd" class="shp4" d="M580.18 1181.03C573.67 1184.55 566.13 1176 569.73 1169.84C569.98 1169.42 570.29 1169.12 570.64 1168.93C572.74 1166.43 576.44 1165.32 579.45 1166.82C584.65 1169.41 585.54 1178.13 580.18 1181.03ZM576.51 1173.76C576.19 1174.25 575.77 1174.67 575.28 1174.98C575.31 1174.99 575.35 1175 575.39 1175C576.12 1175.11 576.61 1174.44 576.51 1173.76Z" />
					<path id="&lt;Path&gt;" class="shp4" d="M801.42 1151.69C800.81 1148.87 798.34 1146.84 795.55 1146.38C792.56 1145.88 788.98 1146.93 787.92 1150.04C787.08 1152.53 787.71 1155.48 789.5 1157.4C791.41 1160.13 795.13 1161.59 798.37 1159.33C800.76 1157.67 802.03 1154.55 801.42 1151.69Z" />
					<path id="&lt;Path&gt;" class="shp4" d="M664.28 1124.55C664.07 1121.18 661.63 1118.27 658.54 1117.92C658.49 1117.9 658.44 1117.87 658.39 1117.85C656.37 1116.97 652.53 1116.43 650.96 1118.46C650.32 1119.28 650.1 1120.71 650.01 1121.95C649.38 1123.07 649.1 1124.38 649.24 1125.74C649.67 1129.74 653.01 1132.33 656.48 1132.04C661.04 1133.03 664.56 1128.94 664.28 1124.55Z" />
					<path id="&lt;Compound Path&gt;" fill-rule="evenodd" class="shp5" d="M764.85 1124.14C764.41 1130.41 756.57 1135.41 751.33 1130.78C751.16 1130.63 751.01 1130.47 750.85 1130.31C748.05 1128.99 746.68 1125.85 747.14 1122.77C747.61 1119.6 749.74 1117.05 752.77 1116.01C758.22 1114.14 765.3 1117.86 764.85 1124.14ZM759.42 1121.86C759.21 1121.6 758.96 1121.38 758.7 1121.19C758.81 1121.37 758.91 1121.57 758.99 1121.81C759.14 1122.3 759.2 1122.83 759.18 1123.38C759.43 1123.96 759.6 1124.58 759.65 1125.2C760.15 1124.08 760.18 1122.81 759.42 1121.86Z" />
				</g>
			</g>
			<g id="&lt;Group&gt;">
				<path id="&lt;Path&gt;" class="shp1" d="M745.24 380.29C695.96 380.29 648.91 369.29 605.4 347.6C570.62 330.26 538.03 306.1 508.53 275.78C482.31 248.83 463.43 221.91 452.21 204.06C440.02 184.69 434.13 171.87 433.88 171.33L439.74 168.65C439.74 168.65 439.74 168.65 439.74 168.65C439.82 168.82 445.78 181.76 457.77 200.81C468.84 218.39 487.46 244.91 513.3 271.44C542.29 301.2 574.28 324.9 608.39 341.89C650.97 363.1 697.01 373.85 745.24 373.85C793.49 373.85 839.73 363.61 882.66 343.43C917.05 327.26 949.43 304.7 978.89 276.39C1005.15 251.15 1024.19 225.91 1035.54 209.19C1047.84 191.05 1054.01 178.72 1054.07 178.6L1059.84 181.46C1059.59 181.98 1053.49 194.19 1040.99 212.63C1029.48 229.61 1010.17 255.23 983.52 280.87C953.54 309.72 920.57 332.71 885.53 349.2C841.7 369.83 794.5 380.29 745.24 380.29Z" />
				<g id="&lt;Group&gt;">
					<path id="&lt;Path&gt;" class="shp1" d="M768.84 230.56C723.23 230.56 676.7 226.7 629.83 219C568.37 208.9 517.7 193.93 486.01 183.15C451.63 171.45 431.49 161.99 431.29 161.9L434.04 156.07C434.24 156.16 454.16 165.51 488.27 177.11C519.73 187.8 570.05 202.66 631.08 212.67C699.63 223.92 767.45 226.9 832.66 221.52C914.11 214.8 991.7 194.95 1063.27 162.52L1065.93 168.39C993.65 201.14 915.3 221.18 833.06 227.95C811.91 229.7 790.47 230.56 768.84 230.56Z" />
					<path id="&lt;Path&gt;" class="shp2" d="M462.64 167.88L486.67 261.4L539.38 194.52L462.64 167.88Z" />
					<path id="&lt;Path&gt;" class="shp4" d="M543.83 194.33L566.76 283.57L632.9 210.61L543.83 194.33Z" />
					<path id="&lt;Path&gt;" class="shp5" d="M647.28 215.39L687.08 316.05L740.92 219.97L647.28 215.39Z" />
					<path id="&lt;Path&gt;" class="shp6" d="M762.14 224.08L813.16 316.05L850.84 219.97L762.14 224.08Z" />
					<path id="&lt;Path&gt;" class="shp7" d="M964.48 198.25L949.46 296.12L870.6 214.64L964.48 198.25Z" />
					<path id="&lt;Path&gt;" class="shp3" d="M1040.31 173.34L1016.45 263.54L976.76 190.39L1040.31 173.34Z" />
				</g>
				<path id="&lt;Path&gt;" class="shp4" d="M554.12 705.88L424.27 155.15L436.81 152.2L566.66 702.92L554.12 705.88Z" />
				<path id="&lt;Path&gt;" class="shp4" d="M940.52 715.56L927.98 712.6L1057.83 161.87L1070.38 164.83L940.52 715.56Z" />
			</g>
		</g>
		<g id="&lt;Group&gt;">
			<g id="&lt;Group&gt;">
				<path id="&lt;Path&gt;" class="shp8" d="M1191.42 453.19C1190.5 452.04 1189.4 450.64 1188.18 449.07C1188.18 449.08 1188.19 449.1 1188.2 449.11C1189.47 450.76 1190.56 452.16 1191.42 453.19Z" />
				<path id="&lt;Path&gt;" class="shp8" d="M1193.4 455.09C1193.54 455.63 1192.79 454.87 1191.42 453.19C1194.1 456.57 1195.25 457.83 1193.4 455.09Z" />
				<path id="&lt;Path&gt;" class="shp8" d="M1185.88 452.46C1186.63 453.27 1187.08 453.64 1187.31 453.71C1186.83 453.13 1186.27 452.45 1185.64 451.67C1185.75 451.98 1185.85 452.26 1185.88 452.46Z" />
			</g>
			<g id="&lt;Group&gt;">
				<g id="&lt;Group&gt;">
					<path id="&lt;Path&gt;" class="shp0" d="M414.68 1161.95C404.97 1161.95 404.96 1176.95 414.68 1176.95C424.38 1176.95 424.39 1161.95 414.68 1161.95Z" />
					<path id="&lt;Path&gt;" class="shp0" d="M463.82 1194.88C454.11 1194.88 454.1 1209.88 463.82 1209.88C473.52 1209.88 473.53 1194.88 463.82 1194.88Z" />
					<path id="&lt;Path&gt;" class="shp0" d="M530.01 1219.82C520.3 1219.82 520.29 1234.82 530.01 1234.82C539.71 1234.82 539.72 1219.82 530.01 1219.82Z" />
					<path id="&lt;Path&gt;" class="shp0" d="M594.19 1236.78C584.49 1236.78 584.47 1251.78 594.19 1251.78C603.89 1251.78 603.91 1236.78 594.19 1236.78Z" />
					<path id="&lt;Path&gt;" class="shp0" d="M658.37 1242.76C648.67 1242.76 648.65 1257.76 658.37 1257.76C668.07 1257.76 668.09 1242.76 658.37 1242.76Z" />
					<path id="&lt;Path&gt;" class="shp0" d="M713.53 1245.75C703.83 1245.75 703.81 1260.75 713.53 1260.75C723.23 1260.75 723.25 1245.75 713.53 1245.75Z" />
					<path id="&lt;Compound Path&gt;" class="shp0" d="M795.36 1341.59L795.93 1341.96L796.61 1342.03C812.2 1343.78 829.79 1350.22 833.94 1360.68C836.18 1366.32 834.28 1372.83 828.28 1380.02C808.67 1403.57 748.18 1401.89 747.57 1401.9C746.96 1401.89 680.57 1403.57 660.68 1380.02C654.61 1372.83 652.68 1366.32 654.95 1360.68C659.15 1350.22 676.99 1343.78 692.8 1342.03L693.48 1341.96L694.06 1341.59C694.85 1341.11 711.65 1330.49 714.85 1316.75C722.54 1319.93 731.88 1322.44 743.17 1323.69L743.2 1324.08C743.84 1324.03 744.43 1323.95 745.06 1323.89C745.7 1323.95 746.3 1324.03 746.95 1324.08L746.98 1323.68C758.1 1322.43 767.29 1319.92 774.86 1316.75C778.02 1330.49 794.58 1341.11 795.36 1341.59ZM745.06 1317.86C699.8 1313.31 687.4 1288.41 684.29 1278.82C712.4 1280.64 734.16 1281.09 742.95 1281.2L742.95 1281.23C743.01 1281.23 743.74 1281.23 745.06 1281.22C746.4 1281.23 747.15 1281.23 747.2 1281.23L747.2 1281.2C755.91 1281.08 777.33 1280.63 805 1278.82C801.93 1288.41 789.7 1313.31 745.06 1317.86ZM995.55 1237.7C908.33 1272.46 764.18 1275.03 745.06 1275.22C725.68 1275.03 579.52 1272.46 491.09 1237.7C426.47 1212.3 387.57 1177.8 378.58 1137.91L378.58 1102.43C384.41 1107.72 394.06 1119.17 396.64 1138.63L396.94 1140.82L399.12 1141.2C399.4 1141.25 426.97 1146.3 441.08 1175.08L442.07 1177.1L444.3 1176.72C444.68 1176.67 481.9 1170.74 501.31 1204.85L502.51 1206.95L504.83 1206.24C506.17 1205.82 538.18 1196.4 567.71 1225.46L569.61 1227.34L571.71 1225.67C571.77 1225.62 577.73 1220.97 587.46 1219.95C600.77 1218.54 614.11 1224.44 627.16 1237.42L629.19 1239.43L631.32 1237.51C632.24 1236.69 654.2 1217.47 685.31 1237.8L687.16 1239.01L688.88 1237.61C689.06 1237.47 709.83 1225.3 743.84 1240.34C777.38 1225.3 800.3 1237.47 800.48 1237.61L802.17 1239.01L803.99 1237.8C834.68 1217.47 856.33 1236.69 857.24 1237.51L859.34 1239.43L861.35 1237.42C874.22 1224.44 887.37 1218.54 900.5 1219.95C910.1 1220.97 915.97 1225.62 916.03 1225.67L918.1 1227.34L919.98 1225.46C949.1 1196.4 980.67 1205.82 982 1206.24L984.28 1206.95L985.47 1204.85C1004.61 1170.74 1041.32 1176.67 1041.69 1176.72L1043.89 1177.1L1044.87 1175.08C1058.78 1146.3 1085.98 1141.25 1086.25 1141.2L1088.4 1140.82L1088.7 1138.63C1091.24 1119.17 1100.76 1107.72 1106.51 1102.43L1106.51 1137.91C1097.64 1177.8 1059.28 1212.3 995.55 1237.7Z" />
					<path id="&lt;Path&gt;" class="shp0" d="M1070.91 1161.95C1061.33 1161.95 1061.34 1176.95 1070.91 1176.95C1080.49 1176.95 1080.48 1161.95 1070.91 1161.95Z" />
					<path id="&lt;Path&gt;" class="shp0" d="M1022.44 1194.88C1012.86 1194.88 1012.88 1209.88 1022.44 1209.88C1032.03 1209.88 1032.01 1194.88 1022.44 1194.88Z" />
					<path id="&lt;Path&gt;" class="shp0" d="M957.16 1219.82C947.58 1219.82 947.6 1234.82 957.16 1234.82C966.75 1234.82 966.73 1219.82 957.16 1219.82Z" />
					<path id="&lt;Path&gt;" class="shp0" d="M893.86 1236.78C884.28 1236.78 884.29 1251.78 893.86 1251.78C903.45 1251.78 903.43 1236.78 893.86 1236.78Z" />
					<path id="&lt;Path&gt;" class="shp0" d="M830.56 1242.76C820.98 1242.76 820.99 1257.76 830.56 1257.76C840.15 1257.76 840.13 1242.76 830.56 1242.76Z" />
					<path id="&lt;Path&gt;" class="shp0" d="M776.16 1245.75C766.58 1245.75 766.59 1260.75 776.16 1260.75C785.75 1260.75 785.73 1245.75 776.16 1245.75Z" />
				</g>
				<g id="&lt;Group&gt;">
					<path id="&lt;Path&gt;" class="shp4" d="M417.92 1161.95C408.22 1161.95 408.2 1176.95 417.92 1176.95C427.63 1176.95 427.64 1161.95 417.92 1161.95Z" />
					<path id="&lt;Path&gt;" class="shp4" d="M463.82 1194.88C454.11 1194.88 454.1 1209.88 463.82 1209.88C473.52 1209.88 473.53 1194.88 463.82 1194.88Z" />
					<path id="&lt;Path&gt;" class="shp4" d="M530.01 1219.82C520.3 1219.82 520.29 1234.82 530.01 1234.82C539.71 1234.82 539.72 1219.82 530.01 1219.82Z" />
					<path id="&lt;Path&gt;" class="shp4" d="M594.19 1236.78C584.49 1236.78 584.47 1251.78 594.19 1251.78C603.89 1251.78 603.91 1236.78 594.19 1236.78Z" />
					<path id="&lt;Path&gt;" class="shp4" d="M658.37 1242.76C648.67 1242.76 648.65 1257.76 658.37 1257.76C668.07 1257.76 668.09 1242.76 658.37 1242.76Z" />
					<path id="&lt;Path&gt;" class="shp4" d="M713.53 1245.75C703.83 1245.75 703.81 1260.75 713.53 1260.75C723.23 1260.75 723.25 1245.75 713.53 1245.75Z" />
					<path id="&lt;Compound Path&gt;" fill-rule="evenodd" class="shp4" d="M1112.46 1095.78L1112.46 1138.24L1112.39 1138.89C1103.21 1180.95 1063.56 1217.04 997.73 1243.28C948.48 1262.91 881.81 1272.18 834.55 1276.5C826.49 1277.24 818.7 1277.86 811.3 1278.39C810.29 1282.21 807.53 1290.12 800.61 1298.38C796.28 1303.56 789.82 1309.37 780.4 1314.2C781.87 1324.75 795.12 1334.22 797.97 1336.15C814.67 1338.15 834.13 1345.02 839.46 1358.45C842.58 1366.3 840.35 1374.86 832.84 1383.88C814.19 1406.27 765.37 1407.94 751.2 1407.94C749.81 1407.94 748.79 1407.92 748.13 1407.91C744.94 1407.92 740.25 1407.94 738.84 1407.94C724.47 1407.94 674.97 1406.27 656.06 1383.88C648.45 1374.86 646.19 1366.3 649.35 1358.45C654.75 1345.02 674.48 1338.15 691.42 1336.15C694.31 1334.22 707.74 1324.75 709.24 1314.2C699.68 1309.37 693.13 1303.56 688.74 1298.38C681.73 1290.12 678.93 1282.21 677.9 1278.39C670.4 1277.86 662.5 1277.24 654.32 1276.5C606.41 1272.18 538.81 1262.91 488.87 1243.28C422.13 1217.04 381.93 1180.95 372.62 1138.89L372.55 1138.24L372.55 1095.78L372.72 1095.3C372.87 1094.87 376.48 1084.94 385.04 1082.15C388.61 1080.98 392.41 1081.23 396.38 1082.87C396.56 1079.79 397.36 1076.04 399.74 1073.07C402.23 1069.99 405.85 1068.34 410.51 1068.18L410.72 1074.17C407.86 1074.27 405.81 1075.14 404.45 1076.82C401.4 1080.62 402.58 1087.44 402.6 1087.5L403.94 1094.62L397.93 1090.54C393.8 1087.73 390.09 1086.82 386.94 1087.85C383.1 1089.09 380.6 1092.86 379.35 1095.24C384.82 1099.3 398.45 1111.61 402.32 1135.76C409.45 1137.53 432.11 1145.01 445.54 1170.54C454.32 1169.78 486.6 1169.27 505.38 1199.9C513.78 1198.01 542.84 1193.96 570.19 1219.51C577.42 1215.23 601.3 1204.77 629.5 1231.32C632.28 1229.32 637.54 1226.11 644.75 1224.17C654.36 1221.59 669.35 1220.89 686.89 1231.69C692.76 1227.99 712.31 1218.62 743.84 1232.55C774.93 1218.62 796.65 1227.99 802.43 1231.69C819.73 1220.89 834.52 1221.59 844 1224.17C851.11 1226.11 856.3 1229.32 859.04 1231.32C886.85 1204.77 910.4 1215.23 917.53 1219.51C944.51 1193.96 973.17 1198.01 981.45 1199.9C999.98 1169.27 1031.81 1169.78 1040.47 1170.54C1053.71 1145.01 1076.06 1137.53 1083.1 1135.76C1086.91 1111.61 1100.36 1099.3 1105.75 1095.24C1104.52 1092.86 1102.05 1089.09 1098.27 1087.85C1095.16 1086.82 1091.5 1087.73 1087.42 1090.54L1081.49 1094.62L1082.82 1087.5C1082.84 1087.44 1084.01 1080.62 1080.99 1076.82C1079.66 1075.14 1077.63 1074.27 1074.81 1074.17L1075.02 1068.18C1079.61 1068.34 1083.19 1069.99 1085.64 1073.07C1087.99 1076.04 1088.78 1079.79 1088.96 1082.87C1092.87 1081.23 1096.62 1080.98 1100.14 1082.15C1108.58 1084.94 1112.14 1094.87 1112.29 1095.3L1112.46 1095.78ZM774.86 1316.75C767.29 1319.92 758.1 1322.43 746.98 1323.68L746.95 1324.08C746.3 1324.03 745.7 1323.95 745.06 1323.89C744.43 1323.95 743.84 1324.03 743.2 1324.08L743.17 1323.69C731.88 1322.44 722.54 1319.93 714.85 1316.75C711.65 1330.49 694.85 1341.11 694.06 1341.59L693.48 1341.96L692.8 1342.03C676.99 1343.78 659.15 1350.22 654.95 1360.68C652.68 1366.32 654.61 1372.83 660.68 1380.02C680.57 1403.57 746.96 1401.89 747.57 1401.9C748.18 1401.89 808.67 1403.57 828.28 1380.02C834.28 1372.83 836.18 1366.32 833.94 1360.68C829.79 1350.22 812.2 1343.78 796.61 1342.03L795.93 1341.96L795.36 1341.59C794.58 1341.11 778.02 1330.49 774.86 1316.75ZM805 1278.82C777.33 1280.63 755.91 1281.08 747.2 1281.2L747.2 1281.23C747.15 1281.23 746.4 1281.23 745.06 1281.22C743.74 1281.23 743.01 1281.23 742.95 1281.23L742.95 1281.2C734.16 1281.09 712.4 1280.64 684.29 1278.82C687.4 1288.41 699.8 1313.31 745.06 1317.86C789.7 1313.31 801.93 1288.41 805 1278.82ZM1106.51 1137.91L1106.51 1102.43C1100.76 1107.72 1091.24 1119.17 1088.7 1138.63L1088.4 1140.82L1086.25 1141.2C1085.98 1141.25 1058.78 1146.3 1044.87 1175.08L1043.89 1177.1L1041.69 1176.72C1041.32 1176.67 1004.61 1170.74 985.47 1204.85L984.28 1206.95L982 1206.24C980.67 1205.82 949.1 1196.4 919.98 1225.46L918.1 1227.34L916.03 1225.67C915.97 1225.62 910.1 1220.97 900.5 1219.95C887.37 1218.54 874.22 1224.44 861.35 1237.42L859.34 1239.43L857.24 1237.51C856.33 1236.69 834.68 1217.47 803.99 1237.8L802.17 1239.01L800.48 1237.61C800.3 1237.47 777.38 1225.3 743.84 1240.34C709.83 1225.3 689.06 1237.47 688.88 1237.61L687.16 1239.01L685.31 1237.8C654.2 1217.47 632.24 1236.69 631.32 1237.51L629.19 1239.43L627.16 1237.42C614.11 1224.44 600.77 1218.54 587.46 1219.95C577.73 1220.97 571.77 1225.62 571.71 1225.67L569.61 1227.34L567.71 1225.46C538.18 1196.4 506.17 1205.82 504.83 1206.24L502.51 1206.95L501.31 1204.85C481.9 1170.74 444.68 1176.67 444.3 1176.72L442.07 1177.1L441.08 1175.08C426.97 1146.3 399.4 1141.25 399.12 1141.2L396.94 1140.82L396.64 1138.63C394.06 1119.17 384.41 1107.72 378.58 1102.43L378.58 1137.91C387.57 1177.8 426.47 1212.3 491.09 1237.7C579.52 1272.46 725.68 1275.03 745.06 1275.22C764.18 1275.03 908.33 1272.46 995.55 1237.7C1059.28 1212.3 1097.64 1177.8 1106.51 1137.91Z" />
					<path id="&lt;Path&gt;" class="shp4" d="M1070.91 1161.95C1061.33 1161.95 1061.34 1176.95 1070.91 1176.95C1080.49 1176.95 1080.48 1161.95 1070.91 1161.95Z" />
					<path id="&lt;Path&gt;" class="shp4" d="M1022.44 1194.88C1012.86 1194.88 1012.88 1209.88 1022.44 1209.88C1032.03 1209.88 1032.01 1194.88 1022.44 1194.88Z" />
					<path id="&lt;Path&gt;" class="shp4" d="M957.16 1219.82C947.58 1219.82 947.6 1234.82 957.16 1234.82C966.75 1234.82 966.73 1219.82 957.16 1219.82Z" />
					<path id="&lt;Path&gt;" class="shp4" d="M893.86 1236.78C884.28 1236.78 884.29 1251.78 893.86 1251.78C903.45 1251.78 903.43 1236.78 893.86 1236.78Z" />
					<path id="&lt;Path&gt;" class="shp4" d="M830.56 1242.76C820.98 1242.76 820.99 1257.76 830.56 1257.76C840.15 1257.76 840.13 1242.76 830.56 1242.76Z" />
					<path id="&lt;Path&gt;" class="shp4" d="M776.16 1245.75C766.58 1245.75 766.59 1260.75 776.16 1260.75C785.75 1260.75 785.73 1245.75 776.16 1245.75Z" />
				</g>
			</g>
			<path id="&lt;Path&gt;" class="shp2" d="M302.1 682.87C294.68 676.22 287.26 669.57 279.84 662.92C278.36 661.59 276.57 660.73 274.53 660.73C272.69 660.73 270.5 661.54 269.23 662.92C266.61 665.78 266.11 670.73 269.23 673.53C276.65 680.18 284.07 686.83 291.49 693.48C292.98 694.81 294.76 695.68 296.8 695.68C298.64 695.68 300.83 694.86 302.1 693.48C304.73 690.62 305.22 685.67 302.1 682.87Z" />
			<path id="&lt;Path&gt;" class="shp2" d="M415.31 473.9C413.88 472.59 412 471.61 410.01 471.7C408.16 471.79 405.9 472.38 404.7 473.9C398.83 481.35 392.96 488.8 387.09 496.25C385.8 497.87 384.89 499.39 384.89 501.55C384.89 503.39 385.71 505.59 387.09 506.85C388.52 508.16 390.39 509.14 392.39 509.05C394.24 508.97 396.49 508.38 397.69 506.85C403.56 499.4 409.44 491.96 415.31 484.51C416.59 482.88 417.51 481.36 417.51 479.2C417.51 477.36 416.69 475.17 415.31 473.9Z" />
			<path id="&lt;Path&gt;" class="shp2" d="M235.85 246.96C227.51 238.26 219.16 229.56 210.82 220.86C208.1 218.02 202.92 217.92 200.22 220.86C197.42 223.9 197.31 228.44 200.22 231.47C208.56 240.17 216.9 248.87 225.24 257.57C227.96 260.41 233.15 260.51 235.85 257.57C238.64 254.52 238.75 249.99 235.85 246.96Z" />
			<path id="&lt;Path&gt;" class="shp2" d="M217.12 1060.58C215.11 1057.47 210.23 1055.39 206.86 1057.89C196.26 1065.73 185.67 1073.58 175.08 1081.42C173.45 1082.63 172.19 1083.88 171.63 1085.9C171.14 1087.7 171.36 1090.09 172.39 1091.68C174.39 1094.8 179.28 1096.87 182.65 1094.37C193.24 1086.53 203.83 1078.68 214.43 1070.84C216.05 1069.64 217.32 1068.38 217.87 1066.36C218.37 1064.56 218.15 1062.17 217.12 1060.58Z" />
			<path id="&lt;Path&gt;" class="shp2" d="M1239.66 918.53C1234.37 912.7 1229.07 906.88 1223.78 901.05C1221.14 898.13 1215.83 898.16 1213.18 901.05C1210.32 904.16 1210.35 908.55 1213.18 911.65C1218.47 917.48 1223.76 923.31 1229.05 929.14C1231.69 932.05 1237.01 932.03 1239.66 929.14C1242.51 926.03 1242.48 921.64 1239.66 918.53Z" />
			<path id="&lt;Path&gt;" class="shp2" d="M1341.51 658.52C1339.44 655.3 1334.71 653.46 1331.25 655.83C1319.89 663.6 1308.52 671.38 1297.15 679.15C1293.92 681.36 1292.16 685.84 1294.46 689.41C1296.54 692.63 1301.26 694.47 1304.73 692.1C1316.09 684.33 1327.46 676.55 1338.82 668.78C1342.05 666.57 1343.82 662.09 1341.51 658.52Z" />
			<path id="&lt;Path&gt;" class="shp2" d="M1142.12 489.47C1135.5 482.03 1128.87 474.58 1122.25 467.14C1119.64 464.2 1114.28 464.27 1111.64 467.14C1108.76 470.27 1108.85 474.61 1111.64 477.74C1118.27 485.19 1124.89 492.63 1131.51 500.08C1134.13 503.02 1139.49 502.94 1142.12 500.08C1145 496.94 1144.91 492.61 1142.12 489.47Z" />
			<path id="&lt;Path&gt;" class="shp2" d="M1269.77 203.13C1257.38 197.53 1245.39 191.12 1233.86 183.93C1230.53 181.85 1225.45 183.11 1223.6 186.62C1221.65 190.3 1222.73 194.66 1226.29 196.88C1237.82 204.07 1249.81 210.48 1262.19 216.08C1265.76 217.69 1270.43 217.23 1272.46 213.39C1274.19 210.11 1273.58 204.85 1269.77 203.13Z" />
			<path id="&lt;Path&gt;" class="shp2" d="M238.92 1322.35C224.95 1320.28 210.91 1319.63 196.83 1320.82C192.93 1321.15 189.14 1324.04 189.33 1328.32C189.5 1332.1 192.64 1336.18 196.83 1335.82C203.38 1335.27 209.96 1335.07 216.53 1335.26C219.75 1335.35 222.97 1335.53 226.18 1335.81C227.72 1335.94 229.25 1336.1 230.79 1336.27C231.56 1336.36 232.33 1336.45 233.09 1336.55C234.01 1336.67 234.12 1336.68 233.4 1336.59C233.91 1336.66 234.42 1336.74 234.93 1336.81C238.79 1337.39 243.18 1335.85 244.15 1331.57C244.97 1328.01 243.07 1322.96 238.92 1322.35Z" />
			<path id="&lt;Path&gt;" class="shp2" d="M1281.82 1326.35C1281.24 1324.53 1280.11 1322.78 1278.38 1321.87C1276.73 1320.99 1274.41 1320.35 1272.6 1321.11C1262.83 1325.22 1253.06 1329.32 1243.29 1333.43C1241.4 1334.23 1239.88 1335.03 1238.8 1336.88C1237.86 1338.49 1237.47 1340.86 1238.05 1342.66C1238.64 1344.47 1239.76 1346.22 1241.5 1347.14C1243.15 1348.01 1245.46 1348.66 1247.27 1347.9C1257.04 1343.79 1266.82 1339.68 1276.59 1335.57C1278.47 1334.78 1279.99 1333.97 1281.07 1332.13C1282.01 1330.52 1282.41 1328.15 1281.82 1326.35Z" />
			<path id="&lt;Path&gt;" class="shp4" d="M369.64 264.05C366 262.13 361.55 263.16 359.38 266.75C357.89 269.2 356.32 271.6 354.66 273.94C354.25 274.51 353.84 275.07 353.43 275.63C353.21 275.92 353 276.2 352.78 276.49C352.64 276.67 352.41 276.97 352.33 277.06C352.14 277.31 351.95 277.55 351.75 277.79C351.26 278.39 350.77 278.99 350.27 279.58C346.57 283.97 342.53 288.07 338.21 291.84C335.25 294.44 335.36 299.84 338.21 302.45C341.37 305.35 345.66 305.22 348.82 302.45C358.04 294.38 365.99 284.8 372.33 274.32C374.37 270.96 373.18 265.93 369.64 264.05Z" />
			<g id="&lt;Group&gt;">
				<path id="&lt;Path&gt;" class="shp4" d="M168.05 730.2C159.79 721.22 150.52 713.24 140.53 706.24C137.31 703.97 132.06 705.55 130.27 708.93C128.24 712.77 129.53 716.77 132.96 719.19C134.11 719.99 135.25 720.81 136.38 721.65C136.94 722.06 137.49 722.48 138.04 722.89C137.98 722.84 137.92 722.79 137.85 722.74C137.99 722.85 138.13 722.96 138.27 723.07C138.42 723.18 138.49 723.24 138.49 723.24C138.52 723.26 138.55 723.29 138.59 723.32C140.86 725.1 143.07 726.95 145.24 728.86C149.52 732.62 153.59 736.61 157.44 740.81C160.1 743.71 165.39 743.71 168.05 740.81C170.89 737.71 170.89 733.29 168.05 730.2Z" />
				<path id="&lt;Path&gt;" class="shp4" d="M138.07 722.91C138.06 722.91 138.05 722.9 138.04 722.89C138.3 723.1 138.48 723.24 138.49 723.24C138.41 723.18 138.34 723.12 138.27 723.07C138.2 723.02 138.18 723 138.07 722.91Z" />
			</g>
			<path id="&lt;Path&gt;" class="shp4" d="M1246.13 1072.1C1244.01 1068.82 1239.38 1067.13 1235.86 1069.41C1226.57 1075.45 1217.27 1081.48 1207.97 1087.52C1204.68 1089.65 1203.01 1094.26 1205.28 1097.78C1207.4 1101.06 1212.02 1102.75 1215.54 1100.47C1224.84 1094.43 1234.14 1088.4 1243.43 1082.37C1246.72 1080.23 1248.39 1075.62 1246.13 1072.1Z" />
			<path id="&lt;Path&gt;" class="shp4" d="M1379.39 1092.09C1371.2 1083.24 1363.01 1074.39 1354.82 1065.54C1352.15 1062.65 1346.89 1062.63 1344.22 1065.54C1341.38 1068.63 1341.37 1073.07 1344.22 1076.14C1352.41 1084.99 1360.6 1093.84 1368.79 1102.69C1371.46 1105.58 1376.73 1105.6 1379.39 1102.69C1382.23 1099.6 1382.24 1095.16 1379.39 1092.09Z" />
			<path id="&lt;Path&gt;" class="shp4" d="M1312.06 297.72C1309.89 294.35 1305.4 292.86 1301.8 295.03C1289.84 302.25 1277.87 309.47 1265.91 316.69C1262.55 318.71 1261 323.51 1263.22 326.95C1265.39 330.32 1269.88 331.81 1273.48 329.64C1285.44 322.42 1297.41 315.2 1309.37 307.98C1312.73 305.96 1314.28 301.16 1312.06 297.72Z" />
			<path id="&lt;Path&gt;" class="shp4" d="M445.27 1327.89L398.15 1299.76C394.78 1297.75 389.77 1298.9 387.89 1302.46C385.98 1306.08 386.98 1310.57 390.58 1312.72L437.7 1340.84C441.07 1342.85 446.08 1341.71 447.96 1338.15C449.87 1334.53 448.87 1330.04 445.27 1327.89Z" />
			<path id="&lt;Path&gt;" class="shp5" d="M349.41 387.69C348.77 386.29 347.79 385.01 346.75 383.88C346.44 383.54 346.1 383.25 345.75 382.96C344.96 382.33 344.18 381.65 343.26 381.21C341.3 380.28 339.66 379.82 337.46 379.73C336.75 379.7 336.05 379.82 335.34 379.91C334.6 380.01 333.86 380.09 333.15 380.3C329.65 381.34 326.75 383.49 324.72 386.51C323.2 388.78 322.73 391.52 323.13 394.15C322.91 395.32 322.77 396.51 322.88 397.67C323.12 400.12 323.57 401.84 324.62 404.08C325.28 405.48 326.31 406.83 327.47 407.85C330.36 410.42 333.99 411.92 337.89 411.91C338.96 411.91 340.04 411.72 341.09 411.55C341.63 411.46 342.15 411.33 342.65 411.14C343.65 410.77 344.7 410.37 345.62 409.82C345.83 409.69 346.02 409.56 346.21 409.42C347.27 408.64 347.69 408.34 348.39 407.42C349.06 406.57 349.42 405.69 349.81 404.69C350.77 402.25 351.22 399.56 351.34 396.95C351.49 393.71 350.75 390.62 349.41 387.69Z" />
			<path id="&lt;Compound Path&gt;" fill-rule="evenodd" class="shp5" d="M339.85 901.22C339.83 902.34 339.72 903.46 339.53 904.59C339.01 907.75 337.31 910.75 335.14 913.08C334.37 913.91 333.42 914.59 332.51 915.25C332.11 915.55 331.69 915.81 331.24 916.03C330.58 916.35 329.96 916.6 329.36 916.82C327.85 917.41 326.46 917.71 324.67 917.9C323.04 918.08 321.3 917.85 319.72 917.43C318.16 917.02 316.57 916.34 315.22 915.45C314.34 914.87 313.52 914.19 312.74 913.47C311.36 912.27 310.13 910.88 309.1 909.37C308.22 908.08 307.58 906.56 307.13 905.07C306.69 903.59 306.46 901.96 306.56 900.41C306.79 896.69 308.13 893.57 310.52 890.76C310.63 890.55 310.73 890.35 310.84 890.15C311.52 888.84 312.56 887.86 313.75 887.03C314.18 886.74 314.62 886.49 315.08 886.27C317.31 885.22 319.15 884.75 321.59 884.48C324.9 884.11 328.19 885.03 331.14 886.44C332.62 887.15 334 888.21 335.16 889.34C336.3 890.46 337.33 891.8 338.03 893.24C338.48 894.14 338.8 894.98 339.05 895.82C339.11 895.99 339.2 896.14 339.25 896.31C339.53 897.26 339.68 898.25 339.77 899.24C339.79 899.36 339.81 899.46 339.83 899.58C339.85 899.8 339.82 900.01 339.84 900.23C339.85 900.56 339.86 900.89 339.85 901.22ZM324.78 901.07C324.78 900.9 324.79 900.72 324.78 900.55C324.78 900.52 324.77 900.48 324.76 900.45C324.74 900.41 324.72 900.38 324.7 900.35C324.68 900.34 324.66 900.33 324.64 900.32C324.39 900.24 324.14 900.17 323.89 900.12C323.69 900.12 323.5 900.13 323.3 900.13C323.07 900.19 322.84 900.24 322.61 900.3C322.53 900.34 322.46 900.39 322.38 900.43C322.26 900.66 322.14 900.89 322.03 901.12C322.05 901.21 322.08 901.3 322.1 901.39C322.22 901.6 322.34 901.8 322.47 902C322.5 902.03 322.53 902.06 322.56 902.09C322.82 902.26 323.09 902.41 323.37 902.56C323.56 902.62 323.75 902.67 323.95 902.71C324.04 902.62 324.13 902.53 324.22 902.44C324.34 902.25 324.45 902.06 324.55 901.87C324.64 901.6 324.71 901.34 324.78 901.07Z" />
			<path id="&lt;Path&gt;" class="shp5" d="M140.4 1231.09C140.29 1230.35 140.1 1229.64 139.83 1228.94C139.34 1227.69 138.86 1226.45 138.06 1225.36C137 1223.91 136.09 1222.9 134.69 1221.82C133.26 1220.71 131.97 1220.08 130.25 1219.4C129.51 1219.12 128.76 1218.93 127.98 1218.82C126.58 1218.62 125.2 1218.39 123.79 1218.52C120.88 1218.78 118.36 1219.42 115.77 1220.8C113.28 1222.13 111.31 1224.12 109.7 1226.41C108.01 1228.81 107.33 1231.74 107.1 1234.63C106.98 1236.13 107.23 1237.66 107.49 1239.13C107.76 1240.62 108.4 1242.06 109.04 1243.4C109.67 1244.71 110.62 1245.91 111.58 1246.97C112.55 1248.04 113.77 1248.99 115.02 1249.68C116.22 1250.35 117.58 1250.95 118.94 1251.2C120.33 1251.46 121.79 1251.69 123.21 1251.55C124.47 1251.43 125.76 1251.25 126.98 1250.85C127.85 1250.76 128.75 1250.66 129.59 1250.39C134.79 1248.75 138.6 1244.51 140.09 1239.3C140.88 1236.54 140.82 1233.89 140.4 1231.09Z" />
			<path id="&lt;Path&gt;" class="shp5" d="M142.79 268.69C141.43 265.77 139.07 263.42 136.42 261.66C133.64 259.8 130.41 259.03 127.13 258.7C123.82 258.37 120.62 259.21 117.62 260.52C114.7 261.8 112.3 264.09 110.58 266.73C108.9 269.3 108.15 272.47 108.01 275.5C107.86 278.65 108.72 281.61 110.02 284.44C111.27 287.14 113.54 289.45 116.04 291.02C118.3 292.44 121.18 293.22 123.9 293.16C124.1 293.23 124.28 293.32 124.48 293.38C127.31 294.27 130.67 294.34 133.52 293.51C137.15 292.44 139.93 290.1 142.07 287.04C143.89 284.45 144.64 281.15 144.83 278.04C145.03 274.78 144.15 271.61 142.79 268.69Z" />
			<path id="&lt;Path&gt;" class="shp5" d="M1164.47 292.85C1161.04 288.98 1155.33 286.43 1150.14 286.86C1144.38 287.33 1139.19 290.47 1136.44 295.64C1134.11 300.03 1133.16 305.69 1134.96 310.45C1135.45 311.76 1135.98 313.09 1136.78 314.25C1138.06 316.09 1139.35 317.35 1141.13 318.67C1142.99 320.06 1145.13 320.78 1147.34 321.07C1149.9 321.82 1152.5 321.93 1155.26 321.42C1158.32 320.85 1161 319.19 1163.33 317.21C1165.71 315.19 1167.27 312.44 1168.34 309.56C1170.51 303.73 1168.44 297.32 1164.47 292.85Z" />
			<path id="&lt;Path&gt;" class="shp5" d="M1369.43 527.21C1369.04 525.34 1368.23 523.43 1367.12 521.87C1365.63 519.77 1363.86 517.91 1361.55 516.7C1359.11 515.42 1356.84 514.87 1354.12 514.62C1352.18 514.44 1350.08 514.73 1348.21 515.23C1346.31 515.74 1344.4 516.57 1342.8 517.73C1340.72 519.25 1338.87 520.98 1337.64 523.29C1336.4 525.65 1335.76 528.09 1335.68 530.76C1335.56 535.25 1337.47 540.23 1340.85 543.25C1341.31 543.66 1341.8 544.06 1342.31 544.44C1344.28 546.08 1346.54 547.37 1349.05 548.11C1353.42 549.39 1358.64 548.84 1362.38 546.11C1364.45 544.6 1366.19 542.9 1367.48 540.63C1368.47 538.9 1369.25 536.92 1369.55 534.93C1369.95 532.22 1370 529.94 1369.43 527.21Z" />
			<path id="&lt;Path&gt;" class="shp5" d="M1170.81 970.86C1167.72 967.7 1163.61 965.96 1159.25 965.61C1151.46 964.98 1144.2 971.35 1142.72 978.82C1141.92 982.86 1142.24 986.99 1144.33 990.63C1146.25 993.97 1149.68 996.6 1153.46 997.44C1155.07 997.79 1156.79 998.02 1158.45 997.84C1158.67 997.82 1158.86 997.78 1159.07 997.76C1159.35 997.75 1159.62 997.76 1159.9 997.74C1162.07 997.56 1163.8 997.18 1165.76 996.35C1167.68 995.54 1169.21 994.56 1170.79 993.16C1173.83 990.47 1175.54 986.45 1175.65 982.43C1175.78 978.13 1173.78 973.89 1170.81 970.86Z" />
			<path id="&lt;Path&gt;" class="shp5" d="M1374.99 1266.1C1374.72 1264.69 1374.11 1263.28 1373.44 1262.03C1373.11 1261.4 1372.67 1260.85 1372.23 1260.28C1371.77 1259.69 1371.34 1259.09 1370.79 1258.58C1368.36 1256.35 1365.49 1255.05 1362.24 1254.62C1359.65 1254.27 1356.91 1254.4 1354.45 1255.34C1351.76 1256.37 1349.11 1257.75 1347.27 1260.04C1346.87 1260.53 1346.52 1261 1346.2 1261.47C1346.14 1261.5 1346.07 1261.52 1346 1261.56C1344.46 1262.55 1342.87 1264.15 1342.56 1266.04C1342.38 1267.13 1342.18 1268.25 1342.16 1269.35C1342.14 1270.49 1342.35 1271.66 1342.53 1272.76C1342.8 1274.36 1343.48 1275.92 1344.2 1277.35C1344.95 1278.83 1346.03 1280.2 1347.16 1281.4C1348.27 1282.57 1349.62 1283.61 1351 1284.44C1352.38 1285.26 1353.94 1285.94 1355.5 1286.3C1357.08 1286.68 1358.79 1286.92 1360.41 1286.73C1362.79 1286.46 1364.34 1286.07 1366.51 1285.02C1367.83 1284.39 1369.04 1283.41 1370.1 1282.41C1372.23 1280.39 1373.7 1277.72 1374.61 1274.95C1375.56 1272.07 1375.53 1269.05 1374.99 1266.1Z" />
			<path id="&lt;Path&gt;" class="shp6" d="M664.38 103.57C661.96 98.26 656.61 94.1 650.83 93.19C647.67 92.69 644.51 92.64 641.41 93.61C638.53 94.51 635.65 96.07 633.63 98.34C631.12 101.14 629.72 104.33 629.45 108.08C629.24 111.13 630.15 114.17 631.52 116.86C632.66 119.1 634.33 120.98 636.3 122.39C638.23 125.55 641.23 127.99 645.05 128.95C651.04 130.45 658.1 128.51 662.17 123.75C664.76 120.72 666.09 117.28 666.43 113.32C666.72 109.93 665.78 106.62 664.38 103.57Z" />
			<path id="&lt;Path&gt;" class="shp6" d="M321.54 116.47C319.06 114.91 316 114.01 313.07 114.01C312.04 114 310.99 114.19 309.98 114.35C309.51 114.43 309.05 114.53 308.61 114.69C307.23 115.17 305.82 115.75 304.63 116.62C302.23 118.38 300.11 120.53 298.88 123.29C298.28 124.65 297.67 126.01 297.42 127.49C297.17 128.97 296.91 130.53 297.05 132.04C297.19 133.51 297.35 135.02 297.88 136.4C298.69 138.51 299.5 139.93 300.96 141.67C302.73 143.79 305.49 145.35 308.15 146.02C310.82 146.7 313.64 146.69 316.31 146.06C317.66 145.99 318.99 145.77 320.24 145.34C321.46 144.91 322.75 144.41 323.83 143.66C325.58 142.44 326.63 141.35 327.89 139.64C328.76 138.47 329.36 137.02 329.78 135.64C330.21 134.25 330.4 132.72 330.36 131.26C330.15 125.17 326.64 119.68 321.54 116.47Z" />
			<path id="&lt;Path&gt;" class="shp6" d="M145.89 948.4C142.98 942.89 136.54 939.4 130.34 939.93C124.06 940.47 117.72 943.7 114.79 949.54C111.79 955.53 112.09 962.63 115.51 968.41C119.43 975.05 127.02 979.06 134.72 977.51C140.17 976.41 144.32 971.46 145.58 966.22C145.61 966.16 145.66 966.11 145.7 966.05C149.04 960.78 148.73 953.79 145.89 948.4Z" />
			<path id="&lt;Path&gt;" class="shp6" d="M1376.96 834.14C1375.76 830.98 1373.97 828.05 1371.33 825.88C1369.76 824.6 1368.04 823.48 1366.2 822.64C1365.33 821.8 1364.31 821.14 1363.12 820.87C1361.59 820.52 1359.76 820.51 1358.25 821.16C1355.63 821.25 1353.09 821.85 1350.61 823.15C1347.66 824.7 1345.17 827.28 1343.43 830.09C1341.68 832.93 1340.69 836.38 1340.65 839.72C1340.61 842.92 1341.53 846.46 1343.46 849.05C1345.78 852.15 1348.64 854.24 1352.32 855.46C1355.34 856.47 1358.64 856.45 1361.73 855.82C1363.01 855.56 1364.23 855.05 1365.39 854.44C1367.37 854.04 1369.28 853.39 1371 852.21C1373.95 850.18 1375.95 847.6 1377.15 844.21C1378.24 841.11 1378.13 837.2 1376.96 834.14Z" />
			<path id="&lt;Path&gt;" class="shp6" d="M1023.54 1330.59C1023 1327.59 1021.33 1324.78 1019.08 1322.67C1017.46 1320.14 1015.43 1317.91 1012.75 1316.38C1007.91 1313.63 1002.13 1313.63 997.29 1316.36C994.94 1317.68 993.15 1319.56 991.61 1321.73C990.01 1323.97 989.32 1326.61 989.03 1329.31C988.84 1331.02 989.07 1332.8 989.6 1334.49C989.99 1340.96 994.11 1347.45 999.81 1350.2C1002.22 1351.36 1004.54 1352.06 1007.25 1352.13C1009.83 1352.2 1012.16 1351.5 1014.47 1350.44C1017.62 1349 1020.38 1346.02 1021.86 1342.91C1023.74 1338.95 1024.31 1334.92 1023.54 1330.59Z" />
			<path id="&lt;Path&gt;" class="shp7" d="M185.46 526.55C183.35 523.26 178.73 521.57 175.2 523.85C165.72 530 156.23 536.14 146.74 542.29C143.45 544.42 141.79 549.03 144.05 552.55C146.17 555.83 150.79 557.52 154.31 555.24C163.8 549.09 173.29 542.95 182.77 536.81C186.06 534.68 187.73 530.06 185.46 526.55Z" />
			<path id="&lt;Path&gt;" class="shp7" d="M189.88 118.87C187.12 117.95 184.32 116.99 181.66 115.8C181.32 115.65 180.96 115.48 180.83 115.42C180.32 115.2 179.82 114.97 179.32 114.73C177.98 114.11 176.65 113.46 175.33 112.79C170.23 110.18 165.35 107.18 160.69 103.85C157.49 101.55 152.2 103.18 150.43 106.54C148.38 110.41 149.7 114.35 153.12 116.8C163.12 123.95 174.23 129.46 185.9 133.33C189.62 134.57 194.26 131.9 195.12 128.09C196.07 123.96 193.87 120.19 189.88 118.87Z" />
			<path id="&lt;Path&gt;" class="shp7" d="M966.07 98.97C964.77 94.97 960.94 92.79 956.84 93.74C943.4 96.83 931.07 103.2 920.43 111.92C917.39 114.42 917.65 119.98 920.43 122.53C923.67 125.5 927.79 125.2 931.04 122.53C931.55 122.12 932.06 121.7 932.58 121.3C932.93 121.04 933.4 120.7 933.54 120.6C934.75 119.72 936 118.87 937.26 118.06C939.8 116.44 942.42 114.96 945.12 113.64C945.79 113.31 946.47 112.98 947.16 112.67C947.5 112.51 949.79 111.43 947.95 112.3C949.3 111.66 950.76 111.18 952.16 110.69C955 109.7 957.9 108.88 960.83 108.2C964.66 107.32 967.28 102.72 966.07 98.97Z" />
			<path id="&lt;Path&gt;" class="shp7" d="M1371.32 164.39C1368.96 162.83 1366.65 161.2 1364.39 159.51C1364.13 159.31 1363.88 159.12 1363.62 158.93C1363.14 158.55 1362.66 158.17 1362.19 157.79C1361.02 156.86 1359.87 155.9 1358.74 154.93C1354.38 151.2 1350.26 147.2 1346.38 142.98C1343.72 140.09 1338.44 140.08 1335.78 142.98C1332.93 146.08 1332.94 150.5 1335.78 153.59C1344.07 162.62 1353.53 170.57 1363.75 177.34C1367.03 179.52 1372.19 178.1 1374.01 174.65C1376 170.89 1374.82 166.71 1371.32 164.39Z" />
			<path id="&lt;Path&gt;" class="shp7" d="M1221.99 730.26C1217.6 729.26 1214.39 731.61 1212.76 735.5C1213.27 734.28 1212.18 736.86 1212.08 737.09C1211.69 737.99 1211.29 738.89 1210.89 739.78C1210.18 741.35 1209.46 742.91 1208.73 744.46C1207.15 747.78 1205.5 751.07 1203.77 754.32C1200.32 760.82 1196.57 767.15 1192.55 773.32C1190.41 776.61 1191.78 781.75 1195.25 783.58C1198.98 785.56 1203.22 784.41 1205.51 780.89C1214.05 767.77 1221.19 753.91 1227.23 739.49C1228.75 735.86 1225.59 731.08 1221.99 730.26Z" />
			<path id="&lt;Path&gt;" class="shp7" d="M307.14 1028.51C295.26 1021.16 283.37 1013.81 271.49 1006.46C268.15 1004.39 263.09 1005.63 261.23 1009.15C259.29 1012.82 260.35 1017.2 263.92 1019.41C275.8 1026.76 287.69 1034.11 299.57 1041.47C302.91 1043.53 307.97 1042.3 309.83 1038.78C311.77 1035.11 310.71 1030.72 307.14 1028.51Z" />
			<path id="&lt;Path&gt;" class="shp7" d="M1160.09 1291.77C1156.18 1290.88 1151.92 1292.95 1150.87 1297.01C1147.39 1310.4 1143.92 1323.8 1140.44 1337.19C1139.46 1340.98 1141.69 1345.5 1145.68 1346.41C1149.6 1347.3 1153.85 1345.24 1154.91 1341.17C1158.38 1327.78 1161.86 1314.39 1165.33 1301C1166.32 1297.21 1164.08 1292.68 1160.09 1291.77Z" />
			<path id="&lt;Path&gt;" class="shp7" d="M311.18 1243.02C308.06 1240.15 303.68 1240.2 300.57 1243.02C293.17 1249.69 285.77 1256.37 278.37 1263.04C275.45 1265.68 275.49 1271.01 278.37 1273.65C281.5 1276.51 285.87 1276.46 288.98 1273.65C296.38 1266.97 303.78 1260.3 311.18 1253.62C314.1 1250.99 314.06 1245.66 311.18 1243.02Z" />
			<path id="&lt;Path&gt;" class="shp7" d="M1235.32 578.39C1232.15 575.48 1227.89 575.64 1224.72 578.39C1213.61 588.02 1202.5 597.65 1191.39 607.28C1188.42 609.86 1188.55 615.28 1191.39 617.89C1194.56 620.8 1198.82 620.64 1202 617.89C1213.11 608.26 1224.22 598.63 1235.32 589C1238.3 586.42 1238.16 581 1235.32 578.39Z" />
			<path id="&lt;Path&gt;" class="shp3" d="M333.65 547.41C320.6 540.4 307.55 533.39 294.49 526.38C288.59 523.2 282.06 528.42 283.48 534.85C286.25 547.38 289.02 559.9 291.79 572.43C291.97 573.23 292.34 573.95 292.8 574.61C294.25 577.97 298.39 580.4 301.9 579.17C314.3 574.85 325.55 568.14 335.17 559.19C338.63 555.97 337.81 549.65 333.65 547.41Z" />
			<path id="&lt;Compound Path&gt;" fill-rule="evenodd" class="shp3" d="M233.67 893.51C227.34 903.99 218.39 912.8 207.76 918.91C203.46 921.38 198.17 919.06 196.74 914.43C193.77 904.8 190.8 895.18 187.83 885.55C187.35 883.99 187.48 882.44 188.02 881.05C187.68 879.38 187.89 877.63 188.79 875.92C190.3 873.07 194.23 871.52 197.26 872.47L229.19 882.49C233.73 883.91 236.26 889.23 233.67 893.51ZM215.03 893.76C213.97 893.43 212.91 893.09 211.84 892.76C212.28 893.78 212.69 894.82 213.07 895.87C213.74 895.18 214.39 894.48 215.03 893.76Z" />
			<path id="&lt;Path&gt;" class="shp3" d="M1278.39 468.34C1269.76 456.4 1261.13 444.46 1252.5 432.52C1250.68 430.01 1248.23 428.51 1245.02 428.94C1242.17 429.32 1239.5 431.42 1238.79 434.31C1235.62 447.15 1232.45 459.98 1229.28 472.82C1228.59 475.62 1229.58 478.79 1231.75 480.64C1231.92 481.38 1232.16 482.1 1232.56 482.79C1234.01 485.27 1236.32 486.18 1239.03 486.5C1251.68 487.99 1264.74 485.01 1275.69 478.6C1278.94 476.7 1280.77 471.64 1278.39 468.34Z" />
			<path id="&lt;Compound Path&gt;" fill-rule="evenodd" class="shp3" d="M1371.29 997.07C1360.7 998.75 1350.1 998.4 1339.72 995.57C1339.38 995.47 1339.04 995.32 1338.7 995.16C1337.19 995.9 1335.43 996.16 1333.51 995.72C1329.78 994.87 1326.92 990.18 1328.27 986.49C1333.06 973.33 1337.86 960.18 1342.66 947.02C1343.7 944.15 1345.8 942.06 1348.89 941.65C1351.77 941.26 1354.92 942.6 1356.37 945.23C1363.96 959.01 1370.63 973.26 1376.53 987.84C1377.93 991.31 1374.99 996.48 1371.29 997.07ZM1351.09 967.56C1350.8 968.35 1350.51 969.13 1350.23 969.92C1351.02 969.99 1351.8 970.2 1352.56 970.52C1352.08 969.53 1351.58 968.55 1351.09 967.56Z" />
			<path id="&lt;Path&gt;" class="shp3" d="M1271.3 1238.68C1262.54 1227.86 1252.28 1218.48 1240.95 1210.41C1236.13 1206.98 1229.75 1211.62 1229.67 1216.89C1229.47 1228.78 1229.27 1240.67 1229.07 1252.56C1229.01 1256.14 1231.98 1259.55 1235.55 1259.98C1237.17 1262.94 1240.94 1264.77 1244.23 1263.75C1254.19 1260.66 1263.15 1255.75 1271.3 1249.29C1272.65 1248.22 1273.57 1245.64 1273.5 1243.98C1273.4 1241.88 1272.62 1240.31 1271.3 1238.68Z" />
			<path id="&lt;Path&gt;" class="shp3" d="M574.64 1343.86C564.53 1333.17 552.71 1324.02 539.83 1316.9C536.02 1314.8 529.57 1316.41 528.81 1321.38C526.9 1333.93 526.26 1346.54 527.29 1359.2C527.49 1361.61 528.67 1363.97 530.55 1365.38C530.4 1367.93 531.19 1370.26 533.39 1371.96C535.75 1373.78 539.1 1374.08 541.72 1372.54C551.97 1366.52 562.45 1360.89 573.12 1355.64C577.6 1353.44 577.74 1347.14 574.64 1343.86Z" />
			<path id="&lt;Compound Path&gt;" fill-rule="evenodd" class="shp3" d="M1184.81 150.1C1174.05 155.71 1163.3 161.32 1152.55 166.93C1149.82 168.35 1146.67 168.23 1144.22 166.34C1143.43 165.73 1142.76 164.92 1142.24 164.02C1139.52 162.85 1137.35 160 1137.57 157.06C1138.55 143.95 1139.53 130.84 1140.51 117.73C1140.73 114.67 1142.24 112.09 1145.12 110.87C1148.17 109.58 1150.86 110.5 1153.31 112.42C1164.31 121.06 1175.32 129.69 1186.32 138.32C1190.07 141.26 1188.72 148.06 1184.81 150.1ZM1164.73 143.67C1165.58 143.23 1166.44 142.78 1167.3 142.33C1166.48 141.68 1165.66 141.04 1164.83 140.39C1165.01 141.48 1164.97 142.59 1164.73 143.67Z" />
			<path id="&lt;Path&gt;" class="shp3" d="M162.03 415.12C154.95 401.84 145.76 389.63 135 379.1C131.03 375.21 123.9 376.88 122.47 382.41C119.83 392.61 117.19 402.8 114.55 413C114.48 413.29 114.46 413.58 114.42 413.88C113.47 417.03 112.62 420.22 111.99 423.46C111.47 426.14 111.92 428.75 113.92 430.76C115.69 432.53 118.76 433.58 121.21 432.68C126.91 430.6 132.75 428.98 138.71 427.88C139.99 427.65 141.27 427.44 142.56 427.25C142.79 427.23 143.97 427.07 143.98 427.07C144.75 426.98 145.52 426.91 146.29 426.84C149.37 426.56 152.46 426.42 155.55 426.4C161.4 426.36 164.69 420.1 162.03 415.12Z" />
		</g>
	</g>
</svg>