<svg version="1.2" baseProfile="tiny-ps" xmlns="http://www.w3.org/2000/svg" viewBox="0 0 1500 1500" width="1500" height="1500">
	<title>5615686-ai</title>
	<style>
		tspan { white-space:pre }
		.shp0 { fill: #ffffe9 } 
		.shp1 { fill: #98a9d7 } 
		.shp2 { fill: #4f6084 } 
		.shp3 { fill: #f59b7c } 
		.shp4 { fill: #8ed2cd } 
		.shp5 { fill: #c2ed98 } 
		.shp6 { fill: #f1f487 } 
		.shp7 { fill: #fed776 } 
	</style>
	<g id="BACKGROUND">
	</g>
	<g id="OBJECTS">
		<g id="&lt;Group&gt;">
			<g id="&lt;Group&gt;">
				<path id="&lt;Path&gt;" class="shp0" d="M410.42 739.82L410.42 1133.84C469.3 1196.94 580.91 1228.49 745.24 1228.49C909.57 1228.49 1018.95 1202.86 1073.37 1151.59L1080.72 780.27C1090.86 758.42 1093.23 739.3 1087.83 722.91C1082.44 706.52 1080.18 698.99 1081.06 700.32C1084.49 690.79 1085.27 679.75 1083.4 667.19C1080.6 648.34 1069.85 628.27 1060.4 623.05C1054.11 619.57 1041.38 612.93 1022.23 603.13L998.62 594.35C994.34 600.9 992.15 604.36 992.06 604.71C991.97 605.06 982.62 611.17 963.99 623.05L959.53 623.86C955.68 607.42 950.39 596.09 943.66 589.89C933.56 580.57 918.34 569.69 910.34 566.41C905.01 564.22 899.06 562.25 892.5 560.5L875.85 552.77L866.66 565.23C853.98 573.97 844.02 580 836.76 583.33C829.5 586.65 822.77 591.42 816.56 597.63L802.39 577.82C787.53 565.93 776.59 558.89 769.6 556.7C759.11 553.42 753.73 551.06 752.81 550.93C752.2 550.84 746.69 548.52 736.28 543.98C729.72 552.9 724.04 558.58 719.23 561.03C714.42 563.48 709.22 565.75 703.62 567.85L674.11 590.54L672.84 595.25C664.68 580.92 656.36 572.13 647.87 568.9C639.39 565.66 630.65 562.17 621.64 558.43L600.52 549.88C592.13 559.5 584.3 565.93 577.04 569.16C566.16 574.01 549.76 583.95 546.74 586.13C543.73 588.31 533.36 601.43 532.84 602.87C532.49 603.83 532.05 605.93 531.53 609.17L507.13 598.67L489.95 592.25L486.2 590.8C473.92 604.18 466.07 611.53 462.66 612.84C459.25 614.15 451.57 617.96 439.62 624.25C431.37 631.77 426.94 636.19 426.33 637.5C425.41 639.47 421.25 645.05 420.91 647.51C420.56 649.96 419.64 657.96 419.9 659.54C420.08 660.59 421.21 664.28 423.31 670.62L428.17 675.15L429.74 688.92C418.49 697.96 412.05 704.61 410.42 708.88C407.97 715.28 407.05 718.05 407.18 722.44C407.31 726.83 408.1 732.47 409.15 734.04C409.85 735.09 410.27 737.02 410.42 739.82Z" />
				<g id="&lt;Group&gt;">
					<path id="&lt;Compound Path&gt;" fill-rule="evenodd" class="shp1" d="M673.01 773.3C673.04 773.47 673.06 773.65 673.05 773.85C672.78 783.22 670.67 792.71 666 800.9C661.72 808.42 655.47 814.1 647.53 817.52C642.78 819.56 637.9 821.09 633.36 823.61C632.24 824.23 631.13 824.86 630.01 825.47C629.64 825.94 629.26 826.42 628.87 826.89C628.06 827.87 627 827.91 626.15 827.44C624.07 828.42 621.92 829.26 619.64 829.82C600.46 834.51 582.29 824.12 569.48 810.55C560.47 813.92 550.02 811.75 542.28 806.24C534.77 800.89 529.78 792.76 526.92 784.09C526.52 783.67 526.26 783.1 526.16 782.48C525.64 779.24 525.3 775.92 525.21 772.6C524.74 772.58 524.25 772.42 523.8 772.06C517.53 767.21 514.53 759.09 514.77 751.31C515.28 735.31 528.15 723.68 541.07 716.21C555.37 707.95 572.29 702.33 582.26 688.34C582.31 688.27 582.36 688.2 582.42 688.15C581.94 687.64 581.44 687.14 580.93 686.66C578.67 684.53 581.95 680.97 584.21 683.11C584.74 683.61 585.26 684.13 585.76 684.65C586.1 684.74 586.44 684.92 586.75 685.22C590.09 688.32 594.54 689.48 598.85 690.59C603.75 691.85 608.59 693.29 613.34 695.05C621.94 698.24 630.2 702.28 637.94 707.19C645.3 711.85 652.18 717.23 657.49 724.2C667.81 737.73 671.35 755.06 673.52 771.56C673.61 772.32 673.4 772.89 673.01 773.3ZM527.88 753.62C530.42 746.36 534.84 740.16 540.57 735.06C545.95 730.27 552.02 726.41 558.06 722.54C563.98 718.75 569.99 714.92 575.07 710.02C579.55 705.68 584.62 699.46 584.88 692.87C579.94 699.29 573.29 704.2 566.32 708.25C552.81 716.13 537 721.4 526.76 733.84C522.54 738.97 519.58 745.3 519.59 752.03C519.59 757.58 521.42 763.02 525.3 766.94C525.58 762.4 526.38 757.91 527.88 753.62ZM554.68 806.66C550.05 800.57 548.49 792.84 549.22 785.2C550.84 768.32 563.17 755.78 572.12 742.3C579.85 730.66 586.35 717.29 586.54 703.2C584.55 706.85 581.81 710.16 578.94 712.99C568.71 723.04 555.17 728.64 544.45 738.05C538.81 743 534.32 748.99 532.09 756.24C529.76 763.8 529.61 771.79 530.61 779.59C530.62 779.62 530.63 779.66 530.64 779.69C532.99 788.32 537.4 796.64 544.7 802.07C547.67 804.27 551.1 805.85 554.68 806.66ZM569.49 779.56C575.85 762.26 591.38 749.47 595 731.01C596.96 721.06 595.58 710.55 591.38 701.35C591.57 708.47 590.23 715.6 587.84 722.31C585.09 730.04 581.19 737.27 576.69 744.11C572.2 750.94 566.99 757.26 562.55 764.12C558.33 770.64 554.79 777.74 554 785.57C553.31 792.37 554.73 799.73 559.45 804.9C560.13 805.64 560.24 806.52 560.01 807.29C563 807.32 565.98 806.79 568.8 805.64C565.44 797.32 566.41 787.95 569.49 779.56ZM641.07 792.73C646.35 772.95 644.31 751.6 634.6 733.49C625.72 716.94 611.4 703.61 594.18 696.15C596.03 699.58 597.52 703.21 598.58 706.97C600.87 715.04 601.33 723.63 599.76 731.87C598.02 740.96 593.47 749.03 588.4 756.64C583.26 764.37 577.5 771.9 574.2 780.66C571.12 788.82 569.96 798.4 574.45 806.28C574.95 807.17 574.85 808.05 574.43 808.73C580.37 814.73 587.15 819.91 595.02 823.11C603.38 826.51 613.09 827.28 621.65 824.16C623.42 823.51 625.11 822.69 626.77 821.79C633.43 813.19 638.27 803.24 641.07 792.73ZM668.87 772.43C668.78 772.22 668.72 772 668.69 771.75C667.48 762.55 665.82 753.35 662.74 744.57C660.14 737.14 656.44 729.96 651.16 724.06C645.3 717.52 637.88 712.53 630.28 708.22C623.48 704.37 616.33 701.12 608.93 698.58C614 701.87 618.73 705.69 623 709.94C637.9 724.76 647.32 744.62 648.62 765.66C649.72 783.56 645.2 801.67 635.91 816.96C639.77 815.27 643.81 814.05 647.6 812.22C661.75 805.35 667.78 788.91 668.22 774.04C668.24 773.36 668.49 772.82 668.87 772.43Z" />
					<path id="&lt;Compound Path&gt;" fill-rule="evenodd" class="shp1" d="M567.32 704.58C566.76 705.56 566.17 706.51 565.54 707.42C563.15 708.08 560.76 708.72 558.26 708.88C565.8 700.67 569.21 688.77 569.54 677.72C569.56 677.04 569.81 676.5 570.18 676.11C570.1 675.9 570.03 675.68 570 675.43C568.79 666.23 567.13 657.03 564.05 648.25C561.45 640.82 557.75 633.64 552.48 627.74C546.62 621.2 539.19 616.21 531.6 611.9C524.8 608.05 517.65 604.8 510.25 602.26C515.32 605.55 520.04 609.37 524.32 613.62C539.22 628.45 548.64 648.3 549.94 669.34C550.46 677.84 549.71 686.39 547.79 694.66C546.54 693.02 545.23 691.42 543.85 689.87C547.12 672 544.57 653.3 535.92 637.17C527.04 620.62 512.72 607.29 495.5 599.83C497.35 603.26 498.83 606.9 499.9 610.66C502.19 618.72 502.65 627.31 501.07 635.56C499.33 644.64 494.78 652.71 489.71 660.33C489.63 660.46 489.54 660.59 489.45 660.73C487.75 660.4 486.05 660.09 484.33 659.78C489.56 651.99 494.48 644.08 496.32 634.69C498.27 624.74 496.89 614.23 492.69 605.04C492.89 612.15 491.54 619.28 489.15 626C486.4 633.72 482.51 640.96 478.01 647.79C475.88 651.02 473.6 654.14 471.31 657.25C470.79 657.13 470.27 657.02 469.75 656.9C469.7 656.88 469.64 656.87 469.59 656.86C469.02 656.57 467.44 656.29 466.63 655.55C468.97 652.37 471.3 649.2 473.43 645.99C481.17 634.34 487.67 620.97 487.86 606.88C485.87 610.53 483.13 613.84 480.25 616.67C470.02 626.72 456.48 632.32 445.77 641.73C440.13 646.68 435.64 652.68 433.41 659.92C431.08 667.48 430.93 675.47 431.92 683.27C431.93 683.3 431.95 683.34 431.96 683.37C432.3 684.63 432.69 685.88 433.12 687.11C431.8 688.16 430.46 689.12 428.96 689.82C428.7 689.14 428.46 688.46 428.23 687.77C427.84 687.35 427.58 686.78 427.48 686.16C426.96 682.92 426.62 679.6 426.52 676.28C426.05 676.26 425.57 676.1 425.11 675.75C418.84 670.89 415.84 662.77 416.09 654.99C416.6 638.99 429.46 627.36 442.38 619.89C456.69 611.63 473.61 606.01 483.58 592.02C483.63 591.95 483.68 591.89 483.74 591.83C483.25 591.32 482.76 590.83 482.25 590.34C479.99 588.21 483.26 584.65 485.53 586.79C486.06 587.29 486.57 587.81 487.08 588.33C487.42 588.42 487.75 588.6 488.07 588.9C491.41 592 495.86 593.17 500.16 594.27C505.07 595.53 509.91 596.97 514.66 598.73C523.25 601.93 531.51 605.96 539.26 610.87C546.62 615.53 553.5 620.91 558.81 627.88C569.12 641.41 572.67 658.74 574.83 675.24C574.93 676 574.71 676.58 574.33 676.98C574.36 677.15 574.37 677.33 574.37 677.53C574.09 686.9 571.99 696.39 567.32 704.58ZM486.2 596.55C481.26 602.98 474.6 607.88 467.64 611.93C454.13 619.81 438.31 625.08 428.08 637.52C423.86 642.65 420.9 648.98 420.91 655.71C420.91 661.26 422.73 666.7 426.61 670.62C426.89 666.08 427.7 661.59 429.2 657.31C431.74 650.04 436.16 643.84 441.89 638.74C447.26 633.95 453.34 630.09 459.38 626.22C465.3 622.43 471.31 618.6 476.39 613.7C480.87 609.36 485.94 603.14 486.2 596.55Z" />
					<path id="&lt;Path&gt;" class="shp1" d="M469.75 656.9C469.7 656.88 469.64 656.87 469.59 656.86C469.02 656.57 467.44 656.29 466.63 655.55C463.5 659.83 460.37 664.14 457.7 668.66C462.27 665.12 466.26 661.22 469.75 656.9Z" />
					<path id="&lt;Compound Path&gt;" fill-rule="evenodd" class="shp1" d="M686.56 635.2C686.59 635.37 686.6 635.56 686.6 635.76C686.32 645.12 684.22 654.61 679.55 662.81C675.26 670.33 669.02 676.01 661.07 679.43C656.32 681.47 651.44 683 646.9 685.52C645.79 686.14 644.68 686.76 643.56 687.37C643.18 687.85 642.8 688.33 642.41 688.8C641.61 689.78 640.54 689.81 639.69 689.35C637.61 690.33 635.47 691.17 633.19 691.73C614 696.42 595.84 686.02 583.02 672.46C579.77 673.67 576.33 674.16 572.9 674.04C572.49 670.84 571.92 667.65 571.19 664.5C571.73 665.31 572.33 666.08 573 666.81C573.68 667.55 573.79 668.43 573.56 669.2C576.54 669.22 579.53 668.7 582.35 667.54C578.98 659.23 579.95 649.86 583.03 641.47C589.4 624.17 604.92 611.38 608.55 592.92C610.5 582.97 609.12 572.46 604.92 563.26C605.12 570.38 603.77 577.5 601.38 584.22C598.63 591.95 594.74 599.18 590.23 606.02C585.74 612.84 580.53 619.17 576.09 626.03C571.88 632.55 568.33 639.65 567.54 647.47C567.39 648.98 567.34 650.5 567.41 652.03C566.23 648.96 564.89 645.95 563.38 643.02C566.4 628.15 577.45 616.57 585.66 604.21C593.39 592.57 599.89 579.19 600.08 565.11C598.1 568.75 595.36 572.07 592.48 574.9C582.25 584.94 568.71 590.55 558 599.95C552.35 604.91 547.87 610.9 545.64 618.15C545.61 618.22 545.6 618.29 545.57 618.36C544.65 617.29 543.71 616.27 542.74 615.29C542.43 615.02 542.12 614.76 541.8 614.5C544.39 607.68 548.66 601.82 554.12 596.96C559.49 592.18 565.56 588.32 571.6 584.45C577.53 580.65 583.54 576.83 588.61 571.92C593.1 567.59 598.17 561.37 598.43 554.78C593.48 561.2 586.83 566.1 579.87 570.16C566.35 578.03 550.54 583.31 540.31 595.75C537.15 599.58 534.7 604.09 533.67 608.93C532.23 608.09 530.77 607.28 529.29 606.51C532.58 593.92 543.57 584.5 554.61 578.12C568.92 569.86 585.84 564.24 595.8 550.25C595.85 550.18 595.91 550.11 595.97 550.05C595.48 549.55 594.99 549.05 594.48 548.57C592.21 546.43 595.49 542.88 597.76 545.02C598.29 545.52 598.8 546.03 599.31 546.55C599.64 546.65 599.98 546.83 600.29 547.12C603.64 550.23 608.09 551.39 612.39 552.5C617.3 553.76 622.13 555.19 626.89 556.96C635.48 560.15 643.74 564.19 651.49 569.09C658.84 573.76 665.73 579.14 671.04 586.11C681.35 599.64 684.89 616.96 687.06 633.47C687.16 634.22 686.94 634.8 686.56 635.2ZM654.62 654.64C659.89 634.85 657.85 613.5 648.14 595.4C639.27 578.85 624.95 565.51 607.72 558.06C609.58 561.49 611.06 565.12 612.12 568.88C614.41 576.95 614.88 585.54 613.3 593.78C611.56 602.87 607.01 610.93 601.94 618.55C596.8 626.28 591.04 633.81 587.74 642.56C584.67 650.73 583.5 660.31 587.99 668.19C588.5 669.08 588.39 669.96 587.97 670.64C593.91 676.64 600.69 681.82 608.57 685.02C616.93 688.42 626.63 689.19 635.19 686.07C636.97 685.42 638.65 684.59 640.31 683.7C646.97 675.1 651.82 665.15 654.62 654.64ZM682.41 634.33C682.32 634.13 682.26 633.91 682.23 633.66C681.02 624.45 679.36 615.26 676.28 606.48C673.68 599.05 669.98 591.86 664.7 585.97C658.85 579.43 651.42 574.44 643.83 570.13C637.02 566.27 629.87 563.03 622.48 560.49C627.54 563.78 632.27 567.59 636.55 571.85C651.45 586.67 660.87 606.53 662.16 627.56C663.27 645.47 658.74 663.58 649.46 678.86C653.31 677.18 657.36 675.96 661.14 674.12C675.3 667.25 681.33 650.82 681.77 635.95C681.79 635.27 682.03 634.73 682.41 634.33Z" />
					<path id="&lt;Compound Path&gt;" fill-rule="evenodd" class="shp1" d="M819.71 651.05C818.81 653.44 817.74 655.75 816.47 657.97C812.19 665.49 805.94 671.17 798 674.59C793.25 676.64 788.37 678.16 783.83 680.68C782.71 681.3 781.6 681.93 780.48 682.54C780.11 683.02 779.73 683.49 779.34 683.96C778.53 684.94 777.47 684.98 776.62 684.52C774.54 685.5 772.39 686.34 770.11 686.89C750.93 691.58 732.76 681.19 719.95 667.62C710.94 670.99 700.48 668.82 692.75 663.32C687.68 659.71 683.76 654.83 680.87 649.37C681.45 646.25 681.84 643.08 682.06 639.9C684.58 647.38 688.76 654.37 695.17 659.14C698.14 661.35 701.57 662.93 705.15 663.74C700.51 657.64 698.96 649.92 699.69 642.28C701.3 625.4 713.64 612.85 722.59 599.38C730.32 587.73 736.82 574.36 737.01 560.28C735.02 563.92 732.28 567.24 729.4 570.06C719.17 580.11 705.64 585.71 694.92 595.12C689.28 600.07 684.79 606.07 682.56 613.31C681.9 615.45 681.42 617.62 681.09 619.81C680.52 616.38 679.73 612.98 678.74 609.66C681.33 602.84 685.59 596.99 691.04 592.13C696.42 587.35 702.49 583.48 708.53 579.61C714.45 575.82 720.46 572 725.54 567.09C730.02 562.76 735.09 556.54 735.35 549.94C730.41 556.37 723.76 561.27 716.79 565.33C703.28 573.2 687.47 578.48 677.23 590.91C675.81 592.64 674.54 594.5 673.47 596.46C672.63 594.81 671.73 593.2 670.77 591.62C675.82 583.93 683.66 577.83 691.54 573.29C705.84 565.02 722.76 559.41 732.73 545.41C732.78 545.34 732.83 545.28 732.89 545.22C732.41 544.71 731.91 544.22 731.4 543.74C729.14 541.6 732.42 538.05 734.68 540.19C735.21 540.68 735.73 541.2 736.23 541.72C736.57 541.82 736.91 542 737.22 542.29C740.56 545.39 745.01 546.56 749.32 547.66C754.22 548.93 759.06 550.36 763.81 552.13C772.41 555.32 780.67 559.35 788.41 564.26C795.77 568.92 802.65 574.31 807.96 581.28C811.6 586.05 814.4 591.3 816.59 596.82C815.44 598.5 814.33 600.2 813.32 601.96C813.28 601.86 813.24 601.75 813.21 601.64C810.6 594.22 806.91 587.03 801.63 581.14C795.77 574.59 788.35 569.6 780.75 565.3C773.95 561.44 766.8 558.19 759.4 555.65C764.47 558.94 769.19 562.76 773.47 567.01C788.37 581.84 797.79 601.69 799.09 622.73C800.19 640.64 795.67 658.74 786.38 674.03C790.23 672.35 794.28 671.13 798.07 669.29C808.38 664.29 814.37 654.21 817.04 643.36C817.57 646 818.52 648.57 819.71 651.05ZM745.47 588.09C747.43 578.13 746.05 567.63 741.85 558.43C742.04 565.55 740.7 572.67 738.3 579.39C735.56 587.11 731.66 594.35 727.16 601.18C722.67 608.01 717.46 614.33 713.02 621.2C708.8 627.71 705.26 634.82 704.47 642.64C703.78 649.44 705.2 656.81 709.92 661.97C710.6 662.72 710.71 663.6 710.48 664.36C713.47 664.39 716.45 663.86 719.27 662.71C715.91 654.4 716.87 645.03 719.96 636.63C726.32 619.33 741.85 606.54 745.47 588.09ZM791.54 649.8C796.81 630.02 794.78 608.67 785.07 590.57C776.19 574.02 761.87 560.68 744.65 553.22C746.5 556.65 747.98 560.29 749.05 564.05C751.34 572.12 751.8 580.7 750.23 588.95C748.49 598.03 743.94 606.1 738.87 613.72C733.73 621.44 727.97 628.98 724.67 637.73C721.59 645.89 720.43 655.48 724.92 663.35C725.42 664.24 725.32 665.12 724.9 665.81C730.84 671.81 737.62 676.99 745.49 680.19C753.85 683.58 763.56 684.36 772.12 681.24C773.89 680.59 775.58 679.76 777.24 678.87C783.9 670.26 788.74 660.31 791.54 649.8Z" />
					<path id="&lt;Compound Path&gt;" fill-rule="evenodd" class="shp1" d="M942.3 681.5C940.83 682.37 939.29 683.17 937.68 683.86C932.93 685.9 928.05 687.43 923.51 689.95C922.4 690.57 921.29 691.2 920.17 691.81C919.79 692.28 919.41 692.76 919.02 693.23C918.22 694.21 917.15 694.25 916.3 693.78C914.22 694.76 912.08 695.6 909.8 696.16C890.61 700.85 872.45 690.46 859.63 676.89C850.62 680.26 840.17 678.09 832.44 672.58C824.92 667.23 819.93 659.1 817.07 650.43C816.67 650.01 816.41 649.44 816.31 648.82C815.79 645.57 815.46 642.26 815.36 638.94C814.89 638.92 814.41 638.76 813.95 638.4C807.68 633.55 804.68 625.43 804.93 617.65C805.44 601.65 818.3 590.02 831.22 582.55C845.53 574.29 862.45 568.67 872.41 554.68C872.46 554.61 872.52 554.54 872.58 554.48C872.09 553.98 871.6 553.48 871.09 553C868.82 550.87 872.1 547.31 874.37 549.45C874.9 549.95 875.41 550.46 875.92 550.99C876.25 551.08 876.59 551.26 876.9 551.56C880.25 554.66 884.7 555.82 889 556.93C893.91 558.19 898.74 559.63 903.5 561.39C912.09 564.58 920.35 568.62 928.1 573.53C935.45 578.19 942.34 583.57 947.65 590.54C954.79 599.92 958.69 611.12 961.13 622.6C959.66 623.5 958.21 624.44 956.79 625.42C955.8 620.51 954.55 615.65 952.89 610.91C950.29 603.48 946.59 596.3 941.31 590.4C935.45 583.86 928.03 578.87 920.44 574.56C913.63 570.71 906.48 567.46 899.09 564.92C904.15 568.21 908.88 572.03 913.16 576.28C928.06 591.1 937.48 610.96 938.77 631.99C938.98 635.36 938.99 638.74 938.8 642.1C937.91 643.23 937.04 644.39 936.19 645.58C934.74 647.64 933.57 649.94 932.72 652.36C935.94 634.54 933.38 615.91 924.75 599.83C915.88 583.28 901.56 569.95 884.33 562.49C886.19 565.92 887.67 569.55 888.73 573.31C891.02 581.38 891.49 589.97 889.91 598.21C888.17 607.3 883.62 615.37 878.55 622.98C873.41 630.71 867.65 638.24 864.35 647C861.28 655.16 860.11 664.74 864.6 672.62C865.11 673.51 865 674.39 864.58 675.07C870.52 681.07 877.3 686.25 885.18 689.45C893.53 692.85 903.24 693.62 911.8 690.5C913.57 689.85 915.26 689.03 916.92 688.13C923.58 679.53 928.43 669.58 931.23 659.07C931.26 658.94 931.29 658.81 931.33 658.68C930.99 662.3 931.46 665.97 932.93 669.34C931.05 674.18 928.76 678.86 926.06 683.3C929.92 681.61 933.97 680.39 937.75 678.56C938.38 678.25 938.99 677.92 939.6 677.57C939.85 677.76 940.11 677.95 940.38 678.13C941.42 678.86 941.96 680.06 942.3 681.5ZM818.03 619.96C820.58 612.7 825 606.5 830.73 601.4C836.1 596.61 842.17 592.75 848.21 588.88C854.14 585.09 860.15 581.26 865.22 576.36C869.71 572.02 874.78 565.8 875.04 559.21C870.09 565.63 863.44 570.54 856.48 574.59C842.96 582.47 827.15 587.74 816.92 600.18C812.7 605.31 809.74 611.64 809.74 618.37C809.75 623.92 811.57 629.36 815.45 633.28C815.73 628.74 816.53 624.25 818.03 619.96ZM844.84 673C840.2 666.91 838.64 659.18 839.37 651.54C840.99 634.66 853.32 622.12 862.27 608.64C870 597 876.5 583.63 876.69 569.54C874.71 573.19 871.97 576.5 869.09 579.33C858.86 589.38 845.32 594.98 834.61 604.39C828.96 609.34 824.47 615.33 822.25 622.58C819.92 630.14 819.77 638.13 820.76 645.93C820.77 645.96 820.78 646 820.79 646.03C823.14 654.66 827.56 662.98 834.86 668.41C837.83 670.61 841.26 672.19 844.84 673ZM885.16 597.35C887.11 587.4 885.73 576.89 881.53 567.69C881.73 574.81 880.38 581.94 877.99 588.65C875.24 596.38 871.35 603.61 866.84 610.45C862.35 617.28 857.14 623.6 852.7 630.46C848.49 636.98 844.94 644.08 844.15 651.91C843.46 658.71 844.88 666.07 849.61 671.24C850.29 671.98 850.4 672.86 850.17 673.63C853.15 673.66 856.14 673.13 858.96 671.97C855.59 663.66 856.56 654.29 859.64 645.9C866.01 628.6 881.53 615.81 885.16 597.35Z" />
					<path id="&lt;Compound Path&gt;" fill-rule="evenodd" class="shp1" d="M947.73 705.35C944.9 701.35 942.74 696.86 941.21 692.2C940.81 691.78 940.55 691.21 940.45 690.59C939.93 687.35 939.6 684.04 939.5 680.71C939.03 680.69 938.55 680.53 938.09 680.18C931.82 675.33 928.82 667.21 929.07 659.42C929.58 643.42 942.44 631.79 955.36 624.33C969.67 616.06 986.59 610.45 996.55 596.45C996.6 596.38 996.66 596.32 996.72 596.26C996.23 595.75 995.74 595.26 995.23 594.78C992.96 592.64 996.24 589.09 998.51 591.23C999.04 591.73 999.55 592.24 1000.06 592.76C1000.39 592.86 1000.73 593.04 1001.05 593.33C1004.39 596.43 1008.84 597.6 1013.14 598.7C1018.05 599.97 1022.89 601.4 1027.64 603.17C1036.23 606.36 1044.49 610.39 1052.24 615.3C1059.59 619.96 1066.48 625.35 1071.79 632.32C1082.1 645.84 1085.65 663.17 1087.81 679.67C1087.91 680.43 1087.69 681.01 1087.31 681.41C1087.34 681.58 1087.35 681.76 1087.35 681.96C1087.09 690.53 1085.3 699.21 1081.42 706.9C1080.52 705.11 1079.56 703.35 1078.53 701.61C1081.07 695.45 1082.32 688.65 1082.52 682.16C1082.54 681.48 1082.78 680.94 1083.16 680.54C1083.07 680.34 1083.01 680.11 1082.98 679.87C1081.77 670.66 1080.11 661.47 1077.03 652.68C1074.43 645.26 1070.73 638.07 1065.45 632.18C1059.6 625.63 1052.17 620.64 1044.58 616.34C1037.77 612.48 1030.62 609.23 1023.23 606.7C1028.29 609.98 1033.02 613.8 1037.3 618.06C1052.2 632.88 1061.62 652.73 1062.91 673.77C1063.13 677.21 1063.13 680.67 1062.93 684.1C1061.39 682.95 1059.8 681.88 1058.18 680.89C1058.45 667.3 1055.4 653.73 1048.89 641.61C1040.02 625.06 1025.7 611.72 1008.47 604.26C1010.33 607.69 1011.81 611.33 1012.87 615.09C1015.16 623.16 1015.63 631.74 1014.05 639.99C1012.31 649.07 1007.76 657.14 1002.69 664.76C1002.52 665.02 1002.34 665.28 1002.17 665.54C1001.51 665.41 1000.81 665.22 1000.1 664.96C999.27 664.65 998.43 664.25 997.65 663.71C1002.75 656.08 1007.49 648.31 1009.3 639.13C1011.25 629.17 1009.87 618.67 1005.67 609.47C1005.87 616.59 1004.52 623.71 1002.13 630.43C999.38 638.15 995.49 645.39 990.98 652.22C986.49 659.05 981.28 665.37 976.84 672.24C972.95 678.26 969.63 684.78 968.53 691.9C966.83 692.87 965.12 693.83 963.4 694.78C963.43 694.29 963.46 693.81 963.51 693.32C965.13 676.44 977.46 663.89 986.41 650.42C994.14 638.77 1000.64 625.4 1000.83 611.32C998.85 614.96 996.11 618.28 993.23 621.1C983 631.15 969.46 636.75 958.75 646.16C953.1 651.11 948.62 657.11 946.39 664.35C944.06 671.91 943.91 679.9 944.9 687.7C944.91 687.74 944.92 687.77 944.93 687.81C946.28 692.75 948.31 697.58 951.16 701.84C949.85 702.82 948.72 704.01 947.73 705.35ZM942.18 661.74C944.72 654.47 949.14 648.27 954.87 643.17C960.24 638.39 966.31 634.52 972.35 630.65C978.28 626.86 984.29 623.04 989.36 618.13C993.85 613.8 998.92 607.58 999.18 600.98C994.24 607.41 987.58 612.31 980.62 616.37C967.1 624.24 951.29 629.52 941.06 641.95C936.84 647.08 933.88 653.41 933.88 660.14C933.89 665.7 935.71 671.14 939.59 675.05C939.87 670.51 940.68 666.03 942.18 661.74Z" />
					<path id="&lt;Path&gt;" class="shp1" d="M987.83 679C992.58 674.99 996.77 670.42 1000.1 664.96C999.27 664.65 998.43 664.25 997.65 663.71C994.28 668.75 990.76 673.73 987.83 679Z" />
					<path id="&lt;Compound Path&gt;" fill-rule="evenodd" class="shp1" d="M828.22 780.05C828.26 780.22 828.29 780.4 828.3 780.6C828.8 789.96 827.5 799.59 823.53 808.15C819.89 816 814.13 822.18 806.5 826.25C801.94 828.68 797.2 830.6 792.89 833.49C791.83 834.21 790.77 834.92 789.71 835.62C789.37 836.13 789.03 836.64 788.69 837.14C787.97 838.18 786.91 838.31 786.02 837.91C784.03 839.06 781.96 840.08 779.74 840.82C761.01 847.1 742.04 838.25 728.15 825.8C719.44 829.9 708.85 828.61 700.68 823.77C692.75 819.06 687.1 811.38 683.53 802.97C683.09 802.59 682.79 802.04 682.64 801.43C681.85 798.24 681.24 794.97 680.87 791.67C680.39 791.68 679.9 791.56 679.42 791.25C672.76 786.94 669.1 779.09 668.7 771.32C667.87 755.33 679.72 742.67 691.98 734.15C705.54 724.73 721.94 717.72 730.71 702.95C730.75 702.87 730.8 702.8 730.85 702.74C730.33 702.28 729.79 701.82 729.25 701.39C726.81 699.45 729.78 695.63 732.22 697.57C732.79 698.03 733.34 698.5 733.89 698.98C734.23 699.04 734.58 699.2 734.92 699.46C738.51 702.27 743.04 703.07 747.42 703.81C752.42 704.66 757.36 705.69 762.24 707.05C771.07 709.51 779.64 712.85 787.76 717.1C795.49 721.13 802.79 725.92 808.66 732.42C820.07 745.05 825.04 762.02 828.57 778.28C828.73 779.03 828.57 779.62 828.22 780.05ZM681.95 772.53C683.88 765.08 687.77 758.54 693.05 752.97C698.01 747.76 703.74 743.4 709.44 739.04C715.02 734.77 720.69 730.46 725.35 725.15C729.45 720.46 733.99 713.83 733.7 707.24C729.31 714.06 723.08 719.5 716.48 724.12C703.67 733.09 688.35 739.66 679.19 752.91C675.41 758.37 672.99 764.92 673.55 771.63C674.02 777.17 676.29 782.43 680.48 786.01C680.38 781.47 680.81 776.93 681.95 772.53ZM713.08 823.16C707.95 817.47 705.75 809.9 705.84 802.23C706.05 785.27 717.29 771.74 725.09 757.57C731.83 745.32 737.19 731.45 736.21 717.4C734.53 721.2 732.08 724.73 729.44 727.79C720.09 738.65 707.06 745.36 697.17 755.63C691.96 761.04 687.98 767.38 686.36 774.79C684.67 782.52 685.19 790.49 686.83 798.18C686.84 798.21 686.86 798.24 686.87 798.28C689.93 806.68 695.02 814.61 702.75 819.41C705.89 821.36 709.44 822.65 713.08 823.16ZM725.57 794.91C730.47 777.14 744.88 763.11 746.96 744.41C748.08 734.33 745.83 723.97 740.87 715.16C741.66 722.24 740.91 729.45 739.09 736.34C736.99 744.27 733.72 751.8 729.8 758.99C725.89 766.16 721.23 772.9 717.37 780.11C713.71 786.95 710.77 794.33 710.64 802.19C710.52 809.03 712.54 816.25 717.68 821C718.42 821.69 718.6 822.55 718.44 823.34C721.41 823.11 724.35 822.34 727.06 820.96C723.01 812.95 723.2 803.53 725.57 794.91ZM798.01 802.08C801.61 781.92 797.81 760.82 786.62 743.59C776.4 727.83 761.02 715.73 743.23 709.74C745.37 713 747.15 716.5 748.52 720.16C751.47 728.01 752.65 736.53 751.77 744.88C750.79 754.07 746.93 762.49 742.51 770.5C738.03 778.63 732.92 786.62 730.36 795.62C727.97 804.01 727.61 813.65 732.74 821.13C733.32 821.97 733.29 822.86 732.92 823.57C739.34 829.06 746.53 833.66 754.64 836.19C763.26 838.88 773 838.84 781.26 835.02C782.98 834.23 784.59 833.26 786.17 832.23C792.09 823.11 796.09 812.78 798.01 802.08ZM824.01 779.53C823.91 779.34 823.83 779.12 823.78 778.88C821.81 769.8 819.38 760.78 815.59 752.28C812.37 745.1 808.09 738.25 802.34 732.81C795.96 726.78 788.14 722.42 780.22 718.76C773.12 715.49 765.72 712.85 758.14 710.93C763.46 713.79 768.49 717.2 773.11 721.08C789.19 734.61 800.23 753.62 803.27 774.47C805.86 792.22 802.86 810.64 794.88 826.65C798.58 824.65 802.51 823.1 806.13 820.96C819.67 812.93 824.3 796.05 823.5 781.2C823.47 780.52 823.67 779.96 824.01 779.53Z" />
					<path id="&lt;Compound Path&gt;" fill-rule="evenodd" class="shp1" d="M983.69 777.88C983.74 778.05 983.77 778.23 983.78 778.43C984.4 787.78 983.21 797.43 979.35 806.03C975.81 813.92 970.13 820.18 962.55 824.34C958.02 826.83 953.3 828.81 949.03 831.76C947.98 832.48 946.93 833.21 945.88 833.93C945.55 834.44 945.21 834.95 944.87 835.45C944.16 836.51 943.11 836.64 942.22 836.26C940.24 837.44 938.19 838.48 935.97 839.25C917.32 845.76 898.25 837.15 884.2 824.87C875.54 829.08 864.93 827.92 856.71 823.18C848.72 818.58 842.97 810.96 839.29 802.6C838.86 802.22 838.55 801.68 838.39 801.07C837.56 797.89 836.91 794.63 836.49 791.33C836.02 791.35 835.53 791.24 835.04 790.93C828.33 786.7 824.57 778.9 824.07 771.13C823.05 755.16 834.74 742.35 846.89 733.68C860.34 724.09 876.64 716.88 885.22 701.99C885.27 701.92 885.32 701.85 885.37 701.79C884.84 701.33 884.3 700.88 883.75 700.45C881.29 698.54 884.21 694.69 886.67 696.6C887.24 697.05 887.81 697.51 888.36 697.99C888.7 698.05 889.05 698.2 889.4 698.46C893.02 701.23 897.56 701.96 901.95 702.65C906.96 703.44 911.91 704.4 916.81 705.7C925.67 708.06 934.27 711.29 942.45 715.43C950.23 719.37 957.59 724.07 963.54 730.5C975.1 742.98 980.29 759.89 984.02 776.11C984.19 776.85 984.03 777.44 983.69 777.88ZM837.34 772.18C839.18 764.71 842.98 758.11 848.2 752.49C853.09 747.21 858.76 742.78 864.41 738.35C869.94 734.01 875.56 729.63 880.14 724.26C884.19 719.52 888.64 712.84 888.27 706.25C883.97 713.12 877.81 718.64 871.27 723.34C858.57 732.47 843.33 739.24 834.33 752.6C830.62 758.11 828.28 764.69 828.93 771.39C829.47 776.92 831.81 782.15 836.04 785.68C835.88 781.14 836.26 776.59 837.34 772.18ZM869.09 822.42C863.89 816.79 861.6 809.25 861.6 801.58C861.59 784.62 872.67 770.95 880.29 756.68C886.88 744.35 892.07 730.42 890.91 716.38C889.28 720.2 886.87 723.76 884.27 726.85C875.05 737.83 862.11 744.7 852.35 755.09C847.2 760.56 843.31 766.96 841.78 774.38C840.19 782.13 840.8 790.09 842.54 797.76C842.55 797.8 842.57 797.83 842.58 797.87C845.74 806.23 850.93 814.09 858.72 818.79C861.89 820.71 865.45 821.95 869.09 822.42ZM881.24 794.02C885.92 776.19 900.15 761.98 901.99 743.25C902.98 733.16 900.6 722.83 895.54 714.08C896.42 721.15 895.76 728.37 894.02 735.28C892.03 743.23 888.84 750.81 885.02 758.04C881.2 765.27 876.62 772.06 872.86 779.32C869.28 786.21 866.43 793.62 866.39 801.48C866.36 808.32 868.47 815.51 873.67 820.2C874.42 820.88 874.61 821.74 874.46 822.53C877.43 822.27 880.35 821.46 883.05 820.04C878.9 812.09 878.97 802.67 881.24 794.02ZM953.75 800.28C957.11 780.08 953.04 759.03 941.64 741.94C931.22 726.31 915.7 714.4 897.84 708.63C900.01 711.87 901.83 715.34 903.25 718.98C906.3 726.8 907.59 735.3 906.8 743.66C905.94 752.87 902.18 761.33 897.87 769.4C893.49 777.58 888.48 785.63 886.03 794.66C883.75 803.08 883.51 812.73 888.73 820.14C889.32 820.98 889.3 821.86 888.94 822.58C895.43 827.99 902.68 832.5 910.82 834.93C919.47 837.51 929.21 837.35 937.42 833.43C939.13 832.61 940.73 831.63 942.29 830.58C948.1 821.38 951.97 811.01 953.75 800.28ZM979.48 777.41C979.37 777.22 979.29 777 979.23 776.76C977.15 767.71 974.62 758.72 970.71 750.27C967.41 743.13 963.04 736.33 957.23 730.97C950.77 725.01 942.9 720.76 934.93 717.19C927.79 714.01 920.36 711.46 912.76 709.64C918.11 712.43 923.18 715.77 927.85 719.6C944.1 732.93 955.37 751.79 958.68 772.61C961.49 790.33 958.72 808.78 950.93 824.89C954.61 822.85 958.52 821.24 962.11 819.05C975.55 810.86 979.98 793.93 978.99 779.08C978.95 778.4 979.14 777.84 979.48 777.41Z" />
					<path id="&lt;Compound Path&gt;" fill-rule="evenodd" class="shp1" d="M1094.62 739.55C1095.24 748.9 1094.06 758.55 1090.19 767.15C1086.65 775.04 1080.97 781.3 1073.39 785.46C1068.86 787.95 1064.15 789.93 1059.87 792.88C1058.82 793.6 1057.77 794.33 1056.72 795.04C1056.39 795.56 1056.06 796.07 1055.72 796.57C1055.01 797.63 1053.95 797.76 1053.06 797.38C1051.08 798.56 1049.03 799.6 1046.81 800.37C1028.16 806.88 1009.09 798.27 995.04 785.99C990.92 787.99 986.35 788.78 981.81 788.54C981.46 784.29 980.98 780.05 980.29 775.86C981.38 777.89 982.77 779.75 984.51 781.32C985.26 782 985.45 782.86 985.3 783.65C988.27 783.39 991.19 782.58 993.89 781.16C989.74 773.21 989.81 763.79 992.08 755.14C996.76 737.31 1010.99 723.09 1012.83 704.37C1013.83 694.28 1011.45 683.95 1006.39 675.2C1007.26 682.27 1006.6 689.49 1004.87 696.4C1002.87 704.35 999.69 711.93 995.86 719.16C992.04 726.39 987.46 733.18 983.7 740.44C980.16 747.26 977.33 754.6 977.24 762.38C976.26 759.11 975.09 755.9 973.68 752.78C976.78 740.19 985.05 729.18 991.13 717.8C997.72 705.47 1002.91 691.54 1001.75 677.5C1000.12 681.32 997.71 684.88 995.11 687.97C985.89 698.95 972.95 705.82 963.19 716.21C959.85 719.76 957.05 723.7 955.07 728.05C953.81 726.98 952.52 725.95 951.2 724.96C953.21 720.83 955.86 717.04 959.04 713.61C963.93 708.33 969.61 703.9 975.25 699.47C980.78 695.13 986.4 690.75 990.98 685.38C995.03 680.64 999.48 673.96 999.11 667.37C994.81 674.24 988.65 679.76 982.11 684.46C969.41 693.59 954.17 700.36 945.18 713.72C944.04 715.41 943.03 717.2 942.2 719.06C940.81 718.26 939.39 717.48 937.96 716.73C942.1 707.85 949.82 700.44 957.73 694.8C971.18 685.21 987.48 678 996.07 663.11C996.11 663.04 996.16 662.97 996.21 662.91C995.68 662.45 995.14 662 994.59 661.57C992.13 659.66 995.05 655.81 997.51 657.72C998.09 658.17 998.65 658.63 999.2 659.11C999.55 659.17 999.9 659.32 1000.24 659.58C1003.86 662.35 1008.4 663.08 1012.79 663.77C1017.8 664.56 1022.75 665.52 1027.65 666.82C1036.51 669.18 1045.12 672.41 1053.3 676.55C1061.07 680.49 1068.43 685.19 1074.39 691.62C1085.95 704.1 1091.13 721.01 1094.86 737.22C1095.03 737.97 1094.88 738.56 1094.53 739C1094.58 739.17 1094.61 739.35 1094.62 739.55ZM1064.6 761.4C1067.95 741.2 1063.88 720.15 1052.49 703.05C1042.07 687.43 1026.54 675.52 1008.68 669.75C1010.85 672.99 1012.67 676.46 1014.1 680.1C1017.15 687.92 1018.43 696.42 1017.65 704.78C1016.79 713.99 1013.03 722.45 1008.71 730.52C1004.34 738.7 999.32 746.75 996.87 755.78C994.59 764.2 994.35 773.85 999.57 781.26C1000.16 782.1 1000.14 782.98 999.79 783.7C1006.27 789.11 1013.52 793.62 1021.66 796.05C1030.31 798.63 1040.05 798.47 1048.27 794.55C1049.97 793.73 1051.57 792.75 1053.14 791.7C1058.94 782.5 1062.81 772.13 1064.6 761.4ZM1090.32 738.53C1090.21 738.34 1090.13 738.12 1090.07 737.88C1087.99 728.83 1085.46 719.84 1081.55 711.39C1078.25 704.25 1073.89 697.45 1068.07 692.09C1061.61 686.13 1053.74 681.87 1045.77 678.31C1038.63 675.13 1031.2 672.58 1023.6 670.76C1028.95 673.55 1034.02 676.89 1038.69 680.72C1054.94 694.05 1066.21 712.91 1069.52 733.73C1072.33 751.45 1069.56 769.9 1061.78 786.01C1065.45 783.97 1069.36 782.36 1072.95 780.17C1086.39 771.98 1090.82 755.05 1089.83 740.2C1089.79 739.52 1089.98 738.96 1090.32 738.53Z" />
					<path id="&lt;Compound Path&gt;" fill-rule="evenodd" class="shp1" d="M544.6 684.63C551.19 691.74 555.7 700.28 559.06 709.32C557.67 710.18 556.25 711 554.81 711.78C553.89 709.29 552.89 706.82 551.77 704.4C548.47 697.26 544.1 690.46 538.29 685.1C531.83 679.15 523.96 674.89 515.99 671.33C508.85 668.14 501.42 665.59 493.82 663.77C499.17 666.56 504.24 669.91 508.91 673.73C523.39 685.62 533.92 701.89 538.37 720.03C536.86 720.9 535.4 721.82 534.02 722.81C531.93 713.34 528.16 704.25 522.7 696.07C512.28 680.44 496.75 668.54 478.9 662.76C481.07 666 482.89 669.48 484.31 673.12C487.36 680.93 488.64 689.43 487.86 697.79C487 707 483.24 715.47 478.93 723.53C474.55 731.71 469.54 739.76 467.09 748.79C464.81 757.21 464.57 766.87 469.79 774.28C470.38 775.11 470.36 776 470 776.72C476.49 782.12 483.73 786.63 491.88 789.06C500.53 791.65 510.26 791.49 518.48 787.56C520.19 786.75 521.79 785.76 523.35 784.71C524.96 782.16 526.42 779.52 527.72 776.81C528.28 779.82 529.24 782.81 530.28 785.76C530.22 785.81 530.15 785.85 530.09 785.89C529.04 786.62 527.99 787.35 526.94 788.06C526.61 788.57 526.27 789.08 525.93 789.59C525.22 790.64 524.17 790.78 523.28 790.4C521.3 791.57 519.24 792.61 517.03 793.38C498.38 799.89 479.3 791.28 465.25 779C456.6 783.21 445.99 782.06 437.77 777.32C429.78 772.71 424.03 765.1 420.35 756.74C419.92 756.35 419.61 755.81 419.45 755.2C418.62 752.02 417.96 748.76 417.55 745.46C417.08 745.49 416.58 745.37 416.1 745.06C409.39 740.83 405.63 733.04 405.13 725.26C404.11 709.29 415.8 696.48 427.95 687.82C441.4 678.22 457.7 671.01 466.28 656.13C466.33 656.05 466.37 655.99 466.43 655.92C465.9 655.46 465.36 655.02 464.8 654.59C462.34 652.68 465.27 648.83 467.73 650.74C468.3 651.19 468.87 651.65 469.42 652.12C469.76 652.18 470.11 652.33 470.46 652.59C474.08 655.36 478.62 656.09 483.01 656.78C488.02 657.57 492.97 658.54 497.87 659.84C506.73 662.19 515.33 665.42 523.51 669.56C531.28 673.5 538.65 678.2 544.6 684.63ZM429.26 706.62C434.15 701.34 439.82 696.92 445.47 692.49C451 688.15 456.62 683.76 461.2 678.39C465.25 673.65 469.7 666.97 469.33 660.39C465.02 667.26 458.87 672.77 452.32 677.48C439.63 686.61 424.39 693.37 415.39 706.73C411.68 712.24 409.34 718.82 409.99 725.52C410.53 731.05 412.86 736.29 417.1 739.82C416.94 735.27 417.32 730.73 418.4 726.32C420.23 718.84 424.04 712.25 429.26 706.62ZM450.15 776.55C444.95 770.92 442.66 763.38 442.66 755.71C442.65 738.75 453.73 725.08 461.35 710.82C467.93 698.49 473.12 684.55 471.97 670.52C470.34 674.33 467.93 677.9 465.33 680.98C456.11 691.96 443.17 698.83 433.4 709.22C428.26 714.7 424.37 721.09 422.84 728.52C421.25 736.27 421.86 744.23 423.59 751.9C423.61 751.93 423.63 751.96 423.64 752C426.8 760.37 431.99 768.22 439.78 772.93C442.94 774.84 446.51 776.08 450.15 776.55ZM476.6 668.21C477.48 675.28 476.82 682.5 475.08 689.42C473.09 697.37 469.9 704.94 466.08 712.18C462.25 719.4 457.68 726.2 453.91 733.45C450.34 740.34 447.49 747.75 447.45 755.62C447.42 762.45 449.53 769.65 454.73 774.34C455.48 775.01 455.67 775.88 455.52 776.66C458.49 776.4 461.41 775.59 464.11 774.17C459.96 766.22 460.03 756.8 462.3 748.15C466.98 730.32 481.21 716.11 483.05 697.39C484.04 687.29 481.66 676.97 476.6 668.21Z" />
				</g>
				<g id="&lt;Group&gt;">
					<path id="&lt;Path&gt;" class="shp2" d="M636.4 893.98C635.51 886.96 632.18 880.43 627.24 875.37C616.99 864.88 601.31 862.69 588.01 868C587.63 867.81 587.17 867.76 586.64 867.92C579.84 869.96 574.15 874.71 570.52 880.78C566.5 887.49 565.41 895.43 566.59 903.1C568.87 917.94 580.07 931.51 594.66 935.59C601.61 937.54 609.25 937.12 615.93 934.35C623.06 931.4 628.5 925.93 631.77 918.95C635.3 911.43 637.45 902.29 636.4 893.98Z" />
					<path id="&lt;Path&gt;" class="shp2" d="M910.03 893.98C909.14 886.96 905.81 880.43 900.88 875.37C890.62 864.88 874.94 862.69 861.64 868C861.26 867.81 860.8 867.76 860.27 867.92C853.47 869.96 847.78 874.71 844.15 880.78C840.13 887.49 839.04 895.43 840.22 903.1C842.5 917.94 853.7 931.51 868.29 935.59C875.25 937.54 882.88 937.12 889.56 934.35C896.69 931.4 902.13 925.93 905.4 918.95C908.93 911.43 911.09 902.29 910.03 893.98Z" />
					<path id="&lt;Path&gt;" class="shp3" d="M636.4 969.85C635.51 964.59 632.18 959.71 627.24 955.92C616.99 948.07 601.31 946.43 588.01 950.4C587.63 950.26 587.17 950.23 586.64 950.34C579.84 951.88 574.15 955.43 570.52 959.97C566.5 965 565.41 970.94 566.59 976.68C568.87 987.78 580.07 997.94 594.66 1001C601.61 1002.46 609.25 1002.14 615.93 1000.07C623.06 997.86 628.5 993.77 631.77 988.55C635.3 982.91 637.45 976.07 636.4 969.85Z" />
					<path id="&lt;Path&gt;" class="shp3" d="M918.01 969.85C917.12 964.59 913.79 959.71 908.86 955.92C898.61 948.07 882.93 946.43 869.62 950.4C869.24 950.26 868.78 950.23 868.25 950.34C861.45 951.88 855.77 955.43 852.14 959.97C848.12 965 847.03 970.94 848.2 976.68C850.48 987.78 861.69 997.94 876.28 1001C883.23 1002.46 890.87 1002.14 897.54 1000.07C904.68 997.86 910.11 993.77 913.38 988.55C916.91 982.91 919.07 976.07 918.01 969.85Z" />
					<path id="&lt;Path&gt;" class="shp2" d="M824.6 942.46C817.02 944.61 808.47 944.52 802.49 938.76C797.83 934.26 795.32 927.46 796.68 921.04C797.33 918 792.67 916.72 792.02 919.76C790.9 925.06 791.72 930.59 794.1 935.37C793.62 935.7 793.25 936.19 793.02 936.77C786.72 952.51 772.29 964.46 756 968.7C739.48 973 721.86 968.36 708.92 957.39C701.9 951.44 696.32 943.82 693.13 935.17C697.89 929.54 700 921.86 698.46 914.6C697.82 911.56 693.16 912.85 693.8 915.88C695.16 922.3 692.66 929.11 687.99 933.6C682.01 939.36 673.46 939.45 665.89 937.3C662.89 936.45 661.61 941.11 664.6 941.96C673.04 944.36 682.31 944.07 689.36 938.76C696.04 954.78 710.01 967.29 726.56 972.57C744.5 978.28 764.13 974.09 778.92 962.69C786.75 956.65 792.97 948.86 796.94 939.83C797.59 940.65 798.31 941.44 799.07 942.17C806.32 949.14 816.6 949.76 825.88 947.12C828.88 946.27 827.6 941.61 824.6 942.46Z" />
				</g>
				<g id="&lt;Group&gt;">
					<path id="&lt;Path&gt;" class="shp1" d="M504.86 1156.76L502.59 1158.44C500.52 1159.97 497.57 1159.54 496.04 1157.47L472.91 1126.28C471.37 1124.21 471.81 1121.26 473.88 1119.72L476.14 1118.04C478.21 1116.51 481.16 1116.95 482.7 1119.02L505.83 1150.2C507.37 1152.27 506.93 1155.22 504.86 1156.76Z" />
					<path id="&lt;Path&gt;" class="shp1" d="M688.25 1096.91L687.35 1094.24C686.52 1091.8 687.85 1089.12 690.29 1088.3L727.07 1075.86C729.51 1075.03 732.18 1076.36 733.01 1078.8L733.91 1081.47C734.74 1083.91 733.42 1086.59 730.97 1087.41L694.19 1099.85C691.75 1100.67 689.08 1099.35 688.25 1096.91Z" />
					<path id="&lt;Path&gt;" class="shp1" d="M824.96 1179.36L826.05 1176.75C827.04 1174.37 829.8 1173.24 832.18 1174.23L868.02 1189.14C870.4 1190.14 871.54 1192.89 870.55 1195.27L869.47 1197.88C868.48 1200.26 865.72 1201.39 863.34 1200.4L827.49 1185.49C825.11 1184.5 823.97 1181.74 824.96 1179.36Z" />
					<path id="&lt;Path&gt;" class="shp1" d="M913.01 1150.71L911.01 1148.71C909.19 1146.89 909.19 1143.91 911.01 1142.09L938.47 1114.63C940.29 1112.81 943.27 1112.81 945.1 1114.63L947.09 1116.62C948.91 1118.45 948.91 1121.43 947.09 1123.25L919.64 1150.71C917.81 1152.53 914.83 1152.53 913.01 1150.71Z" />
					<path id="&lt;Path&gt;" class="shp1" d="M1003.95 1034.57L1005.72 1032.38C1007.33 1030.37 1010.3 1030.05 1012.31 1031.67L1042.54 1056.03C1044.55 1057.65 1044.87 1060.61 1043.25 1062.62L1041.48 1064.82C1039.86 1066.82 1036.9 1067.14 1034.89 1065.53L1004.66 1041.16C1002.65 1039.55 1002.33 1036.58 1003.95 1034.57Z" />
					<path id="&lt;Path&gt;" class="shp1" d="M433.9 1009.24L435.67 1007.05C437.29 1005.04 440.25 1004.72 442.26 1006.34L472.49 1030.7C474.5 1032.32 474.82 1035.29 473.2 1037.29L471.43 1039.49C469.82 1041.5 466.85 1041.81 464.84 1040.2L434.61 1015.84C432.6 1014.22 432.28 1011.25 433.9 1009.24Z" />
					<path id="&lt;Path&gt;" class="shp4" d="M596.67 1114.93L597.73 1117.54C598.69 1119.93 597.53 1122.68 595.14 1123.65L559.15 1138.21C556.75 1139.17 554.01 1138.01 553.04 1135.62L551.98 1133.01C551.02 1130.62 552.18 1127.87 554.57 1126.9L590.56 1112.34C592.96 1111.38 595.7 1112.54 596.67 1114.93Z" />
					<path id="&lt;Path&gt;" class="shp4" d="M748.2 1211.16L745.45 1210.55C742.93 1210 741.32 1207.49 741.88 1204.97L750.19 1167.05C750.75 1164.53 753.26 1162.92 755.78 1163.47L758.53 1164.08C761.05 1164.63 762.66 1167.14 762.11 1169.66L753.79 1207.58C753.24 1210.1 750.72 1211.71 748.2 1211.16Z" />
					<path id="&lt;Path&gt;" class="shp4" d="M898.44 1084.56L897.6 1087.24C896.82 1089.7 894.18 1091.08 891.72 1090.31L854.69 1078.63C852.23 1077.85 850.85 1075.21 851.63 1072.75L852.48 1070.06C853.25 1067.6 855.9 1066.22 858.36 1067L895.38 1078.68C897.84 1079.45 899.22 1082.1 898.44 1084.56Z" />
					<path id="&lt;Path&gt;" class="shp5" d="M1046.74 1023.71L1044.13 1024.77C1041.74 1025.74 1038.99 1024.57 1038.02 1022.18L1023.47 986.19C1022.5 983.8 1023.66 981.05 1026.05 980.09L1028.67 979.03C1031.06 978.06 1033.8 979.23 1034.77 981.62L1049.33 1017.61C1050.3 1020 1049.13 1022.75 1046.74 1023.71Z" />
					<path id="&lt;Path&gt;" class="shp5" d="M780.8 1094.14L779.13 1091.88C777.59 1089.81 778.03 1086.86 780.1 1085.32L811.28 1062.19C813.35 1060.65 816.3 1061.09 817.84 1063.16L819.52 1065.43C821.06 1067.5 820.62 1070.45 818.55 1071.98L787.36 1095.11C785.29 1096.65 782.34 1096.21 780.8 1094.14Z" />
					<path id="&lt;Path&gt;" class="shp5" d="M613.88 1173.82L614.96 1171.22C615.95 1168.84 618.71 1167.7 621.09 1168.69L656.93 1183.61C659.31 1184.6 660.45 1187.36 659.46 1189.74L658.38 1192.34C657.39 1194.72 654.63 1195.86 652.25 1194.87L616.4 1179.95C614.02 1178.96 612.88 1176.2 613.88 1173.82Z" />
					<path id="&lt;Path&gt;" class="shp5" d="M535.49 1040.64L536.57 1038.04C537.57 1035.66 540.32 1034.52 542.7 1035.51L578.55 1050.43C580.93 1051.42 582.07 1054.18 581.08 1056.56L579.99 1059.16C579 1061.54 576.24 1062.68 573.86 1061.69L538.02 1046.77C535.64 1045.78 534.5 1043.02 535.49 1040.64Z" />
					<path id="&lt;Path&gt;" class="shp6" d="M428.51 1103.34L426.83 1101.08C425.29 1099.01 425.73 1096.06 427.8 1094.52L458.98 1071.39C461.05 1069.86 464.01 1070.29 465.54 1072.37L467.22 1074.63C468.76 1076.7 468.32 1079.65 466.25 1081.19L435.06 1104.32C432.99 1105.85 430.04 1105.41 428.51 1103.34Z" />
					<path id="&lt;Path&gt;" class="shp6" d="M995.6 1120.49L997.16 1118.14C998.59 1116 1001.52 1115.41 1003.66 1116.84L1035.99 1138.35C1038.13 1139.78 1038.72 1142.7 1037.29 1144.85L1035.73 1147.19C1034.3 1149.34 1031.38 1149.93 1029.23 1148.5L996.91 1126.99C994.76 1125.56 994.18 1122.64 995.6 1120.49Z" />
					<path id="&lt;Path&gt;" class="shp6" d="M934.05 1022.69L935.61 1020.35C937.04 1018.2 939.96 1017.61 942.11 1019.04L974.43 1040.55C976.58 1041.98 977.17 1044.9 975.74 1047.05L974.18 1049.39C972.75 1051.54 969.82 1052.13 967.68 1050.7L935.35 1029.19C933.21 1027.76 932.62 1024.84 934.05 1022.69Z" />
					<path id="&lt;Path&gt;" class="shp7" d="M716.54 1137.79L717.77 1140.32C718.9 1142.64 717.93 1145.46 715.61 1146.59L680.69 1163.57C678.37 1164.7 675.55 1163.73 674.43 1161.41L673.19 1158.87C672.07 1156.55 673.04 1153.73 675.36 1152.61L710.27 1135.62C712.59 1134.5 715.41 1135.47 716.54 1137.79Z" />
					<path id="&lt;Path&gt;" class="shp7" d="M535.82 996.74L537.05 999.27C538.18 1001.59 537.2 1004.41 534.88 1005.54L499.97 1022.52C497.65 1023.65 494.83 1022.68 493.7 1020.36L492.47 1017.82C491.34 1015.5 492.32 1012.68 494.64 1011.56L529.55 994.57C531.87 993.45 534.69 994.42 535.82 996.74Z" />
					<path id="&lt;Path&gt;" class="shp7" d="M982.18 1152.94L983.42 1155.47C984.54 1157.79 983.57 1160.61 981.25 1161.74L946.34 1178.72C944.02 1179.84 941.2 1178.87 940.07 1176.55L938.84 1174.02C937.71 1171.7 938.68 1168.88 941 1167.75L975.92 1150.77C978.24 1149.64 981.06 1150.62 982.18 1152.94Z" />
					<path id="&lt;Path&gt;" class="shp7" d="M1010.62 1015.37L1009.54 1017.97C1008.55 1020.35 1005.79 1021.49 1003.41 1020.5L967.57 1005.58C965.19 1004.59 964.05 1001.83 965.04 999.45L966.12 996.85C967.11 994.47 969.87 993.33 972.25 994.32L1008.1 1009.24C1010.48 1010.23 1011.62 1012.99 1010.62 1015.37Z" />
					<path id="&lt;Path&gt;" class="shp3" d="M866.78 1146.83L865.7 1149.43C864.71 1151.81 861.95 1152.95 859.57 1151.96L823.72 1137.04C821.34 1136.05 820.21 1133.29 821.2 1130.91L822.28 1128.31C823.27 1125.93 826.03 1124.79 828.41 1125.79L864.25 1140.7C866.63 1141.69 867.77 1144.45 866.78 1146.83Z" />
					<path id="&lt;Path&gt;" class="shp3" d="M622.1 1072.64L621.04 1070.03C620.07 1067.64 621.24 1064.89 623.63 1063.92L659.62 1049.36C662.01 1048.4 664.76 1049.56 665.72 1051.95L666.78 1054.57C667.75 1056.96 666.58 1059.7 664.19 1060.67L628.2 1075.23C625.81 1076.19 623.06 1075.03 622.1 1072.64Z" />
					<path id="&lt;Path&gt;" class="shp3" d="M540.08 1090.24C537.42 1087.9 533.28 1087.21 530.27 1089.32C528.99 1090.21 528.05 1091.52 527.53 1092.96C526.27 1092.88 524.97 1093.66 525.03 1095.29C525.17 1099.21 527.66 1102.79 531.41 1104.09C535.2 1105.41 539.32 1103.64 541.41 1100.31C543.45 1097.05 542.99 1092.81 540.08 1090.24Z" />
					<path id="&lt;Compound Path&gt;" fill-rule="evenodd" class="shp3" d="M474.72 988.15C472.36 991.56 467.46 991.95 464.21 989.8C464.2 989.79 464.18 989.78 464.17 989.77C463.3 989.22 462.62 988.49 462.12 987.65C462.02 987.48 461.91 987.3 461.82 987.12C461.76 986.99 461.71 986.87 461.67 986.75C460.28 983.38 461.44 978.91 465.08 977.45C466.31 976.67 467.77 976.24 469.31 976.36C474.77 976.78 477.8 983.7 474.72 988.15ZM468.61 984.02C468.71 983.88 468.76 983.67 468.7 983.37C468.7 983.34 468.69 983.32 468.68 983.3C468.38 983.37 468.14 983.68 468.11 984.04C468.3 984.07 468.47 984.07 468.61 984.02Z" />
					<path id="&lt;Compound Path&gt;" fill-rule="evenodd" class="shp3" d="M957.98 1086.28C954.68 1088.48 950.26 1088.06 947.59 1085.07C945.09 1082.27 944.5 1078.16 946.32 1074.86C946.71 1074.15 947.28 1073.79 947.88 1073.69C949.04 1072.36 950.66 1071.41 952.66 1071.21C956.2 1070.86 959.91 1073.01 961.32 1076.27C962.93 1079.98 961.24 1084.1 957.98 1086.28ZM955.53 1081.73C955.73 1081.56 955.89 1081.36 956 1081.11C955.9 1081.23 955.79 1081.34 955.68 1081.44C955.63 1081.54 955.58 1081.64 955.53 1081.73Z" />
					<path id="&lt;Path&gt;" class="shp7" d="M913.83 1039.43C913.57 1038.82 913.22 1038.23 912.78 1037.71C909.85 1034.23 904.5 1034.95 901.55 1038.02C898.07 1041.66 898.82 1047.16 902.92 1049.97C906.87 1052.67 912.21 1051.36 914.25 1046.99C915.42 1044.46 915.21 1041.58 913.83 1039.43Z" />
					<path id="&lt;Path&gt;" class="shp7" d="M1048.01 1101.3C1045.77 1100.18 1042.94 1100.25 1040.95 1101.65C1039.95 1101.2 1038.73 1101.38 1038.11 1102.66C1036.43 1106.09 1037.3 1110.36 1040.46 1112.64C1043.69 1114.97 1048.09 1113.77 1050.27 1110.6C1052.47 1107.4 1051.52 1103.06 1048.01 1101.3Z" />
					<path id="&lt;Compound Path&gt;" fill-rule="evenodd" class="shp7" d="M451.42 1129.58C450.12 1130.71 448.46 1131.49 446.74 1131.8C446.05 1132.34 445.21 1132.53 444.22 1132.53C442.15 1132.54 440.12 1131.52 438.83 1129.91C437.03 1127.66 437.19 1124.74 438.61 1122.63C439.29 1120.33 441.38 1118.55 444.15 1118.41C448.02 1118.21 451.69 1121.58 450.41 1125.6C450.4 1125.62 450.39 1125.65 450.38 1125.67C451.96 1126.19 453.02 1128.2 451.42 1129.58ZM444.06 1125.09C444.15 1125.16 444.27 1125.19 444.4 1125.19C444.29 1124.86 444.08 1124.62 443.59 1124.66C443.53 1124.67 443.48 1124.67 443.42 1124.68C443.64 1124.78 443.85 1124.91 444.06 1125.09Z" />
					<path id="&lt;Compound Path&gt;" fill-rule="evenodd" class="shp4" d="M580.18 1181.03C573.67 1184.55 566.13 1176 569.73 1169.84C569.98 1169.42 570.29 1169.12 570.64 1168.93C572.74 1166.43 576.44 1165.32 579.45 1166.82C584.65 1169.41 585.54 1178.13 580.18 1181.03ZM576.51 1173.76C576.19 1174.25 575.77 1174.67 575.28 1174.98C575.31 1174.99 575.35 1175 575.39 1175C576.12 1175.11 576.61 1174.44 576.51 1173.76Z" />
					<path id="&lt;Path&gt;" class="shp4" d="M801.42 1151.69C800.81 1148.87 798.34 1146.84 795.55 1146.38C792.56 1145.88 788.98 1146.93 787.92 1150.04C787.08 1152.53 787.71 1155.48 789.5 1157.4C791.41 1160.13 795.13 1161.59 798.37 1159.33C800.76 1157.67 802.03 1154.55 801.42 1151.69Z" />
					<path id="&lt;Path&gt;" class="shp4" d="M664.28 1124.55C664.07 1121.18 661.63 1118.27 658.54 1117.92C658.49 1117.9 658.44 1117.87 658.39 1117.85C656.37 1116.97 652.53 1116.43 650.96 1118.46C650.32 1119.28 650.1 1120.71 650.01 1121.95C649.38 1123.07 649.1 1124.38 649.24 1125.74C649.67 1129.74 653.01 1132.33 656.48 1132.04C661.04 1133.03 664.56 1128.94 664.28 1124.55Z" />
					<path id="&lt;Compound Path&gt;" fill-rule="evenodd" class="shp5" d="M764.85 1124.14C764.41 1130.41 756.57 1135.41 751.33 1130.78C751.16 1130.63 751.01 1130.47 750.85 1130.31C748.05 1128.99 746.68 1125.85 747.14 1122.77C747.61 1119.6 749.74 1117.05 752.77 1116.01C758.22 1114.14 765.3 1117.86 764.85 1124.14ZM759.42 1121.86C759.21 1121.6 758.96 1121.38 758.7 1121.19C758.81 1121.37 758.91 1121.57 758.99 1121.81C759.14 1122.3 759.2 1122.83 759.18 1123.38C759.43 1123.96 759.6 1124.58 759.65 1125.2C760.15 1124.08 760.18 1122.81 759.42 1121.86Z" />
				</g>
			</g>
		</g>
	</g>
</svg>